M48
; DRILL file {KiCad 7.0.7} date Sat Sep 16 18:25:32 2023
; FORMAT={-:-/ absolute / inch / decimal}
; #@! TF.CreationDate,2023-09-16T18:25:32+02:00
; #@! TF.GenerationSoftware,Kicad,Pcbnew,7.0.7
; #@! TF.FileFunction,Plated,1,2,PTH
FMAT,2
INCH
; #@! TA.AperFunction,Plated,PTH,ViaDrill
T1C0.0157
; #@! TA.AperFunction,Plated,PTH,ComponentDrill
T2C0.0300
; #@! TA.AperFunction,Plated,PTH,ComponentDrill
T3C0.0374
; #@! TA.AperFunction,Plated,PTH,ComponentDrill
T4C0.0394
; #@! TA.AperFunction,Plated,PTH,ComponentDrill
T5C0.0551
; #@! TA.AperFunction,Plated,PTH,ComponentDrill
T6C0.0591
; #@! TA.AperFunction,Plated,PTH,ComponentDrill
T7C0.0598
; #@! TA.AperFunction,Plated,PTH,ComponentDrill
T8C0.0669
; #@! TA.AperFunction,Plated,PTH,ViaDrill
T9C0.0787
; #@! TA.AperFunction,Plated,PTH,ComponentDrill
T10C0.1083
%
G90
G05
T1
X2.5183Y-4.588
X2.5787Y-4.5866
X2.6167Y-4.0368
X2.6758Y-4.0368
X2.7165Y-3.4252
X2.7756Y-3.4252
X2.9724Y-3.3858
X3.0118Y-4.0354
X3.0709Y-4.6063
X3.5435Y-4.6065
X3.5827Y-4.6654
X3.622Y-4.0762
X3.9173Y-3.7795
X4.0748Y-3.3268
X4.4094Y-3.5039
X4.5669Y-4.5866
X4.5669Y-4.9016
X4.6457Y-5.1378
X5.3346Y-3.0118
X5.3346Y-3.3071
X5.3937Y-2.9724
X5.4528Y-2.9724
X5.9664Y-5.0315
X6.0433Y-3.5039
X6.1024Y-1.6339
X6.1024Y-2.185
X6.1024Y-2.5984
X6.1024Y-3.1496
X6.1811Y-3.4252
X6.1864Y-4.9415
X6.1964Y-5.3215
X6.2402Y-1.4173
X6.3189Y-2.3228
X6.3189Y-2.4409
X6.3189Y-3.3071
X6.3976Y-3.4252
X6.7717Y-3.8189
X6.8504Y-3.6417
T2
X4.8543Y-3.1976
X4.8543Y-3.2976
X4.8543Y-3.3976
X4.8543Y-3.4976
X4.8543Y-3.5976
X4.8543Y-3.6976
X4.8543Y-3.7976
X4.8543Y-3.8976
X4.8543Y-3.9976
X4.8543Y-4.0976
X4.8543Y-4.1976
X4.8543Y-4.2976
X4.8543Y-4.3976
X4.8543Y-4.4976
X4.8543Y-4.5976
X5.8543Y-3.1976
X5.8543Y-3.2976
X5.8543Y-3.3976
X5.8543Y-3.4976
X5.8543Y-3.5976
X5.8543Y-3.6976
X5.8543Y-3.7976
X5.8543Y-3.8976
X5.8543Y-3.9976
X5.8543Y-4.0976
X5.8543Y-4.1976
X5.8543Y-4.2976
X5.8543Y-4.3976
X5.8543Y-4.4976
X5.8543Y-4.5976
T3
X6.3878Y-4.8406
X6.4862Y-4.8406
X6.5846Y-4.8406
X6.6831Y-4.8406
X6.7815Y-4.8406
X6.8799Y-4.8406
T4
X3.7008Y-4.685
X3.7008Y-4.785
X3.7008Y-4.885
X3.8008Y-4.685
X3.8008Y-4.785
X3.8008Y-4.885
X4.6457Y-1.3976
X4.6457Y-1.4976
X4.6457Y-1.5976
X4.6457Y-1.8094
X4.6457Y-1.9094
X4.6457Y-2.0094
X4.6457Y-2.2431
X4.6457Y-2.3431
X4.6457Y-2.4431
X5.7431Y-1.8482
X5.7431Y-1.9482
X5.7431Y-2.0482
X5.748Y-1.3157
X5.748Y-1.4157
X5.748Y-1.5157
X5.748Y-1.6157
X5.748Y-2.2819
X5.748Y-2.3819
X5.748Y-2.4819
X6.3878Y-1.811
X6.3878Y-1.9094
X6.3878Y-2.0079
X6.3878Y-2.7559
X6.3878Y-2.8543
X6.3878Y-2.9528
X6.9587Y-1.811
X6.9587Y-2.0079
X6.9587Y-2.7559
X6.9587Y-2.9528
T5
X2.7461Y-3.0512
T6
X3.6319Y-3.0512
T7
X2.6772Y-1.9591
X2.6772Y-2.1591
X2.6772Y-2.3591
X2.6772Y-2.5591
T8
X2.7165Y-0.9858
X2.7165Y-1.1417
X2.7165Y-1.4378
X2.7165Y-1.5937
T9
X3.1222Y-5.2632
X3.2425Y-4.6864
X3.3613Y-4.0959
X3.3858Y-5.0197
X3.563Y-5.1969
X3.7992Y-3.2677
X3.878Y-4.0551
X4.0354Y-4.4882
X4.3504Y-4.4882
X5.0Y-5.3346
T10
X2.7772Y-1.8591
X2.7772Y-2.6591
X3.0772Y-2.0591
X3.0772Y-2.4591
T6
G00X6.6575Y-1.689
M15
G01X6.7087Y-1.689
M16
G05
G00X6.6575Y-2.1299
M15
G01X6.7087Y-2.1299
M16
G05
G00X6.6575Y-2.6339
M15
G01X6.7087Y-2.6339
M16
G05
G00X6.6575Y-3.0748
M15
G01X6.7087Y-3.0748
M16
G05
T0
M30
