%TF.GenerationSoftware,KiCad,Pcbnew,7.0.7*%
%TF.CreationDate,2023-09-16T18:25:32+02:00*%
%TF.ProjectId,dew_control_pcb,6465775f-636f-46e7-9472-6f6c5f706362,rev?*%
%TF.SameCoordinates,Original*%
%TF.FileFunction,Paste,Top*%
%TF.FilePolarity,Positive*%
%FSLAX46Y46*%
G04 Gerber Fmt 4.6, Leading zero omitted, Abs format (unit mm)*
G04 Created by KiCad (PCBNEW 7.0.7) date 2023-09-16 18:25:32*
%MOMM*%
%LPD*%
G01*
G04 APERTURE LIST*
G04 Aperture macros list*
%AMRoundRect*
0 Rectangle with rounded corners*
0 $1 Rounding radius*
0 $2 $3 $4 $5 $6 $7 $8 $9 X,Y pos of 4 corners*
0 Add a 4 corners polygon primitive as box body*
4,1,4,$2,$3,$4,$5,$6,$7,$8,$9,$2,$3,0*
0 Add four circle primitives for the rounded corners*
1,1,$1+$1,$2,$3*
1,1,$1+$1,$4,$5*
1,1,$1+$1,$6,$7*
1,1,$1+$1,$8,$9*
0 Add four rect primitives between the rounded corners*
20,1,$1+$1,$2,$3,$4,$5,0*
20,1,$1+$1,$4,$5,$6,$7,0*
20,1,$1+$1,$6,$7,$8,$9,0*
20,1,$1+$1,$8,$9,$2,$3,0*%
%AMFreePoly0*
4,1,18,-0.697500,2.280000,2.027500,2.280000,2.502500,2.280000,2.502500,1.530000,2.027500,1.530000,2.027500,-1.530000,2.502500,-1.530000,2.502500,-2.280000,-0.697500,-2.280000,-0.697500,-2.775000,-1.602500,-2.775000,-1.602500,-2.280000,-2.027500,-2.280000,-2.027500,2.280000,-1.602500,2.280000,-1.602500,2.775000,-0.697500,2.775000,-0.697500,2.280000,-0.697500,2.280000,$1*%
G04 Aperture macros list end*
%ADD10RoundRect,0.200000X-0.200000X-0.275000X0.200000X-0.275000X0.200000X0.275000X-0.200000X0.275000X0*%
%ADD11RoundRect,0.200000X0.200000X0.275000X-0.200000X0.275000X-0.200000X-0.275000X0.200000X-0.275000X0*%
%ADD12RoundRect,0.225000X0.225000X0.250000X-0.225000X0.250000X-0.225000X-0.250000X0.225000X-0.250000X0*%
%ADD13RoundRect,0.200000X0.275000X-0.200000X0.275000X0.200000X-0.275000X0.200000X-0.275000X-0.200000X0*%
%ADD14RoundRect,0.150000X0.150000X-0.825000X0.150000X0.825000X-0.150000X0.825000X-0.150000X-0.825000X0*%
%ADD15RoundRect,0.250001X-2.049999X-0.799999X2.049999X-0.799999X2.049999X0.799999X-2.049999X0.799999X0*%
%ADD16R,1.800000X2.500000*%
%ADD17RoundRect,0.225000X-0.250000X0.225000X-0.250000X-0.225000X0.250000X-0.225000X0.250000X0.225000X0*%
%ADD18R,3.300000X2.500000*%
%ADD19R,0.500000X0.350000*%
%ADD20RoundRect,0.250000X-0.625000X0.312500X-0.625000X-0.312500X0.625000X-0.312500X0.625000X0.312500X0*%
%ADD21RoundRect,0.200000X-0.275000X0.200000X-0.275000X-0.200000X0.275000X-0.200000X0.275000X0.200000X0*%
%ADD22RoundRect,0.250001X2.049999X0.799999X-2.049999X0.799999X-2.049999X-0.799999X2.049999X-0.799999X0*%
%ADD23RoundRect,0.187500X0.187500X-0.312500X0.187500X0.312500X-0.187500X0.312500X-0.187500X-0.312500X0*%
%ADD24FreePoly0,90.000000*%
%ADD25RoundRect,0.250000X-0.475000X0.250000X-0.475000X-0.250000X0.475000X-0.250000X0.475000X0.250000X0*%
%ADD26RoundRect,0.250000X0.650000X-1.000000X0.650000X1.000000X-0.650000X1.000000X-0.650000X-1.000000X0*%
%ADD27RoundRect,0.250000X0.850000X0.350000X-0.850000X0.350000X-0.850000X-0.350000X0.850000X-0.350000X0*%
%ADD28RoundRect,0.250000X1.275000X1.125000X-1.275000X1.125000X-1.275000X-1.125000X1.275000X-1.125000X0*%
%ADD29RoundRect,0.225000X-0.225000X-0.250000X0.225000X-0.250000X0.225000X0.250000X-0.225000X0.250000X0*%
G04 APERTURE END LIST*
D10*
%TO.C,R32*%
X177175000Y-59000000D03*
X178825000Y-59000000D03*
%TD*%
D11*
%TO.C,R23*%
X115325000Y-121500000D03*
X113675000Y-121500000D03*
%TD*%
D12*
%TO.C,C4*%
X109863000Y-97610000D03*
X108313000Y-97610000D03*
%TD*%
D13*
%TO.C,R24*%
X117500000Y-123325000D03*
X117500000Y-121675000D03*
%TD*%
D14*
%TO.C,U3*%
X64155000Y-123535000D03*
X65425000Y-123535000D03*
X66695000Y-123535000D03*
X67965000Y-123535000D03*
X67965000Y-118585000D03*
X66695000Y-118585000D03*
X65425000Y-118585000D03*
X64155000Y-118585000D03*
%TD*%
D10*
%TO.C,R16*%
X154175000Y-95500000D03*
X155825000Y-95500000D03*
%TD*%
D11*
%TO.C,R20*%
X160500000Y-127799000D03*
X158850000Y-127799000D03*
%TD*%
D10*
%TO.C,R1*%
X82615000Y-133185000D03*
X84265000Y-133185000D03*
%TD*%
D15*
%TO.C,C3*%
X101600000Y-77500000D03*
X110400000Y-77500000D03*
%TD*%
D16*
%TO.C,D3*%
X75465000Y-113500000D03*
X75465000Y-109500000D03*
%TD*%
%TO.C,D4*%
X78512500Y-98035000D03*
X78512500Y-94035000D03*
%TD*%
D10*
%TO.C,R15*%
X154175000Y-99175000D03*
X155825000Y-99175000D03*
%TD*%
D17*
%TO.C,C7*%
X67500000Y-88725000D03*
X67500000Y-90275000D03*
%TD*%
D18*
%TO.C,D1*%
X62000000Y-39400000D03*
X62000000Y-32600000D03*
%TD*%
D10*
%TO.C,R12*%
X154175000Y-91500000D03*
X155825000Y-91500000D03*
%TD*%
D17*
%TO.C,C13*%
X64465000Y-104260000D03*
X64465000Y-105810000D03*
%TD*%
D10*
%TO.C,R31*%
X173175000Y-59000000D03*
X174825000Y-59000000D03*
%TD*%
D12*
%TO.C,C6*%
X109863000Y-92784000D03*
X108313000Y-92784000D03*
%TD*%
D14*
%TO.C,U4*%
X66560000Y-109510000D03*
X67830000Y-109510000D03*
X69100000Y-109510000D03*
X70370000Y-109510000D03*
X70370000Y-104560000D03*
X69100000Y-104560000D03*
X67830000Y-104560000D03*
X66560000Y-104560000D03*
%TD*%
D19*
%TO.C,U2*%
X156206000Y-127056000D03*
X156206000Y-127706000D03*
X156206000Y-128356000D03*
X156206000Y-129006000D03*
X154156000Y-129006000D03*
X154156000Y-128356000D03*
X154156000Y-127706000D03*
X154156000Y-127056000D03*
%TD*%
D20*
%TO.C,R22*%
X118000000Y-108537500D03*
X118000000Y-111462500D03*
%TD*%
D11*
%TO.C,R13*%
X156075000Y-70600000D03*
X154425000Y-70600000D03*
%TD*%
D10*
%TO.C,R11*%
X152175000Y-84000000D03*
X153825000Y-84000000D03*
%TD*%
D21*
%TO.C,R8*%
X158250000Y-53000000D03*
X158250000Y-54650000D03*
%TD*%
D11*
%TO.C,R9*%
X156075000Y-46400000D03*
X154425000Y-46400000D03*
%TD*%
D21*
%TO.C,R28*%
X117500000Y-117675000D03*
X117500000Y-119325000D03*
%TD*%
%TO.C,R19*%
X118000000Y-104175000D03*
X118000000Y-105825000D03*
%TD*%
D12*
%TO.C,C8*%
X73775000Y-86000000D03*
X72225000Y-86000000D03*
%TD*%
D11*
%TO.C,R25*%
X117000000Y-127500000D03*
X115350000Y-127500000D03*
%TD*%
D22*
%TO.C,C5*%
X110400000Y-106000000D03*
X101600000Y-106000000D03*
%TD*%
D23*
%TO.C,Q2*%
X84870000Y-116282250D03*
D24*
X82965000Y-112790000D03*
D23*
X81060000Y-116282250D03*
X82330000Y-116282250D03*
X83600000Y-116282250D03*
%TD*%
D13*
%TO.C,R26*%
X119500000Y-129325000D03*
X119500000Y-127675000D03*
%TD*%
D23*
%TO.C,Q3*%
X87917500Y-101282250D03*
D24*
X86012500Y-97790000D03*
D23*
X84107500Y-101282250D03*
X85377500Y-101282250D03*
X86647500Y-101282250D03*
%TD*%
D10*
%TO.C,R3*%
X82615000Y-135185000D03*
X84265000Y-135185000D03*
%TD*%
D25*
%TO.C,C15*%
X158250000Y-62650000D03*
X158250000Y-64550000D03*
%TD*%
D23*
%TO.C,Q1*%
X81845000Y-130932250D03*
D24*
X79940000Y-127440000D03*
D23*
X78035000Y-130932250D03*
X79305000Y-130932250D03*
X80575000Y-130932250D03*
%TD*%
D26*
%TO.C,D2*%
X72560000Y-127560000D03*
X72560000Y-123560000D03*
%TD*%
D17*
%TO.C,C11*%
X62060000Y-118285000D03*
X62060000Y-119835000D03*
%TD*%
D10*
%TO.C,R2*%
X85640000Y-118780000D03*
X87290000Y-118780000D03*
%TD*%
D11*
%TO.C,R27*%
X115325000Y-119000000D03*
X113675000Y-119000000D03*
%TD*%
D21*
%TO.C,R18*%
X158250000Y-77175000D03*
X158250000Y-78825000D03*
%TD*%
D12*
%TO.C,C12*%
X68335000Y-115060000D03*
X66785000Y-115060000D03*
%TD*%
D10*
%TO.C,R6*%
X88687500Y-105535000D03*
X90337500Y-105535000D03*
%TD*%
D11*
%TO.C,R7*%
X156075000Y-50825000D03*
X154425000Y-50825000D03*
%TD*%
D25*
%TO.C,C10*%
X158250000Y-38450000D03*
X158250000Y-40350000D03*
%TD*%
%TO.C,C9*%
X158250000Y-56875000D03*
X158250000Y-58775000D03*
%TD*%
D27*
%TO.C,U1*%
X103700000Y-91780000D03*
D28*
X99075000Y-91025000D03*
X99075000Y-87975000D03*
X95725000Y-91025000D03*
X95725000Y-87975000D03*
D27*
X103700000Y-87220000D03*
%TD*%
D11*
%TO.C,R14*%
X156075000Y-75000000D03*
X154425000Y-75000000D03*
%TD*%
D21*
%TO.C,R10*%
X158250000Y-42575000D03*
X158250000Y-44225000D03*
%TD*%
D29*
%TO.C,C1*%
X107725000Y-85000000D03*
X109275000Y-85000000D03*
%TD*%
D10*
%TO.C,R5*%
X88687500Y-103535000D03*
X90337500Y-103535000D03*
%TD*%
%TO.C,R4*%
X85640000Y-120780000D03*
X87290000Y-120780000D03*
%TD*%
%TO.C,R30*%
X173175000Y-82000000D03*
X174825000Y-82000000D03*
%TD*%
D21*
%TO.C,R17*%
X158250000Y-66775000D03*
X158250000Y-68425000D03*
%TD*%
D25*
%TO.C,C16*%
X158250000Y-81050000D03*
X158250000Y-82950000D03*
%TD*%
D12*
%TO.C,C14*%
X70740000Y-101035000D03*
X69190000Y-101035000D03*
%TD*%
D10*
%TO.C,R29*%
X177175000Y-82000000D03*
X178825000Y-82000000D03*
%TD*%
D14*
%TO.C,U5*%
X69595000Y-93975000D03*
X70865000Y-93975000D03*
X72135000Y-93975000D03*
X73405000Y-93975000D03*
X73405000Y-89025000D03*
X72135000Y-89025000D03*
X70865000Y-89025000D03*
X69595000Y-89025000D03*
%TD*%
D12*
%TO.C,C2*%
X102550000Y-96000000D03*
X101000000Y-96000000D03*
%TD*%
D21*
%TO.C,R21*%
X149181000Y-131206000D03*
X149181000Y-132856000D03*
%TD*%
M02*
