%TF.GenerationSoftware,KiCad,Pcbnew,7.0.7*%
%TF.CreationDate,2023-09-16T18:41:48+02:00*%
%TF.ProjectId,dew_connector_pcb,6465775f-636f-46e6-9e65-63746f725f70,rev?*%
%TF.SameCoordinates,Original*%
%TF.FileFunction,Copper,L1,Top*%
%TF.FilePolarity,Positive*%
%FSLAX46Y46*%
G04 Gerber Fmt 4.6, Leading zero omitted, Abs format (unit mm)*
G04 Created by KiCad (PCBNEW 7.0.7) date 2023-09-16 18:41:48*
%MOMM*%
%LPD*%
G01*
G04 APERTURE LIST*
G04 Aperture macros list*
%AMRoundRect*
0 Rectangle with rounded corners*
0 $1 Rounding radius*
0 $2 $3 $4 $5 $6 $7 $8 $9 X,Y pos of 4 corners*
0 Add a 4 corners polygon primitive as box body*
4,1,4,$2,$3,$4,$5,$6,$7,$8,$9,$2,$3,0*
0 Add four circle primitives for the rounded corners*
1,1,$1+$1,$2,$3*
1,1,$1+$1,$4,$5*
1,1,$1+$1,$6,$7*
1,1,$1+$1,$8,$9*
0 Add four rect primitives between the rounded corners*
20,1,$1+$1,$2,$3,$4,$5,0*
20,1,$1+$1,$4,$5,$6,$7,0*
20,1,$1+$1,$6,$7,$8,$9,0*
20,1,$1+$1,$8,$9,$2,$3,0*%
G04 Aperture macros list end*
%TA.AperFunction,ComponentPad*%
%ADD10O,2.000000X5.000000*%
%TD*%
%TA.AperFunction,ComponentPad*%
%ADD11O,5.000000X2.000000*%
%TD*%
%TA.AperFunction,ComponentPad*%
%ADD12O,2.500000X3.500000*%
%TD*%
%TA.AperFunction,ComponentPad*%
%ADD13RoundRect,0.250001X1.099999X-1.099999X1.099999X1.099999X-1.099999X1.099999X-1.099999X-1.099999X0*%
%TD*%
%TA.AperFunction,ComponentPad*%
%ADD14C,2.700000*%
%TD*%
%TA.AperFunction,ComponentPad*%
%ADD15R,2.780000X2.780000*%
%TD*%
%TA.AperFunction,ComponentPad*%
%ADD16C,2.780000*%
%TD*%
G04 APERTURE END LIST*
D10*
%TO.P,J23,1*%
%TO.N,+12V*%
X103750000Y-69000000D03*
D11*
%TO.P,J23,2*%
%TO.N,GND*%
X100000000Y-65250000D03*
D10*
%TO.P,J23,MP,MountPin*%
X96250000Y-69000000D03*
%TD*%
%TO.P,J11,1*%
%TO.N,+15V*%
X61750000Y-69000000D03*
D11*
%TO.P,J11,2*%
%TO.N,GND*%
X58000000Y-65250000D03*
D10*
%TO.P,J11,MP,MountPin*%
X54250000Y-69000000D03*
%TD*%
%TO.P,J30,1*%
%TO.N,+12L*%
X112250000Y-56000000D03*
D11*
%TO.P,J30,2*%
%TO.N,GND*%
X116000000Y-59750000D03*
D10*
%TO.P,J30,MP,MountPin*%
X119750000Y-56000000D03*
%TD*%
%TO.P,J20,1*%
%TO.N,+12V*%
X82250000Y-56000000D03*
D11*
%TO.P,J20,2*%
%TO.N,GND*%
X86000000Y-59750000D03*
D10*
%TO.P,J20,MP,MountPin*%
X89750000Y-56000000D03*
%TD*%
%TO.P,J21,1*%
%TO.N,+12V*%
X89750000Y-69000000D03*
D11*
%TO.P,J21,2*%
%TO.N,GND*%
X86000000Y-65250000D03*
D10*
%TO.P,J21,MP,MountPin*%
X82250000Y-69000000D03*
%TD*%
%TO.P,J22,1*%
%TO.N,+12V*%
X96250000Y-56000000D03*
D11*
%TO.P,J22,2*%
%TO.N,GND*%
X100000000Y-59750000D03*
D10*
%TO.P,J22,MP,MountPin*%
X103750000Y-56000000D03*
%TD*%
%TO.P,J10,1*%
%TO.N,+15V*%
X54250000Y-56000000D03*
D11*
%TO.P,J10,2*%
%TO.N,GND*%
X58000000Y-59750000D03*
D10*
%TO.P,J10,MP,MountPin*%
X61750000Y-56000000D03*
%TD*%
D12*
%TO.P,J43,1,Pin_1*%
%TO.N,Net-(J40-Pin_4)*%
X136500000Y-57000000D03*
X125500000Y-56000000D03*
%TO.P,J43,2,Pin_2*%
%TO.N,+12P*%
X135000000Y-53500000D03*
X131500000Y-59500000D03*
%TD*%
D13*
%TO.P,J12,1,Pin_1*%
%TO.N,+15V*%
X71500000Y-70500000D03*
D14*
%TO.P,J12,2,Pin_2*%
%TO.N,GND*%
X71500000Y-66540000D03*
%TD*%
D13*
%TO.P,J31,1,Pin_1*%
%TO.N,+12L*%
X116000000Y-70500000D03*
D14*
%TO.P,J31,2,Pin_2*%
%TO.N,GND*%
X116000000Y-66540000D03*
%TD*%
D15*
%TO.P,J40,1,Pin_1*%
%TO.N,+12P*%
X148740000Y-70000000D03*
D16*
%TO.P,J40,2,Pin_2*%
%TO.N,Net-(J40-Pin_2)*%
X143660000Y-70000000D03*
%TO.P,J40,3,Pin_3*%
%TO.N,Net-(J40-Pin_3)*%
X138580000Y-70000000D03*
%TO.P,J40,4,Pin_4*%
%TO.N,Net-(J40-Pin_4)*%
X133500000Y-70000000D03*
%TD*%
D12*
%TO.P,J41,1,Pin_1*%
%TO.N,Net-(J40-Pin_2)*%
X166500000Y-57000000D03*
X155500000Y-56000000D03*
%TO.P,J41,2,Pin_2*%
%TO.N,+12P*%
X165000000Y-53500000D03*
X161500000Y-59500000D03*
%TD*%
%TO.P,J42,1,Pin_1*%
%TO.N,Net-(J40-Pin_3)*%
X151500000Y-57000000D03*
X140500000Y-56000000D03*
%TO.P,J42,2,Pin_2*%
%TO.N,+12P*%
X150000000Y-53500000D03*
X146500000Y-59500000D03*
%TD*%
%TA.AperFunction,Conductor*%
%TO.N,+12L*%
G36*
X122442121Y-49520502D02*
G01*
X122488614Y-49574158D01*
X122500000Y-49626500D01*
X122500000Y-75373500D01*
X122479998Y-75441621D01*
X122426342Y-75488114D01*
X122374000Y-75499500D01*
X109126000Y-75499500D01*
X109057879Y-75479498D01*
X109011386Y-75425842D01*
X109000000Y-75373500D01*
X109000000Y-75373499D01*
X108999999Y-66540004D01*
X113894592Y-66540004D01*
X113914200Y-66826672D01*
X113914201Y-66826678D01*
X113914202Y-66826686D01*
X113946264Y-66980980D01*
X113972664Y-67108025D01*
X113972666Y-67108033D01*
X114068898Y-67378803D01*
X114201099Y-67633936D01*
X114366811Y-67868698D01*
X114562944Y-68078705D01*
X114562943Y-68078705D01*
X114562947Y-68078708D01*
X114785853Y-68260055D01*
X115031375Y-68409361D01*
X115294942Y-68523844D01*
X115571641Y-68601371D01*
X115571642Y-68601371D01*
X115856311Y-68640499D01*
X115856322Y-68640500D01*
X116143678Y-68640500D01*
X116143688Y-68640499D01*
X116351927Y-68611876D01*
X116428358Y-68601371D01*
X116705058Y-68523844D01*
X116968625Y-68409361D01*
X117214147Y-68260055D01*
X117437053Y-68078708D01*
X117633189Y-67868698D01*
X117798901Y-67633936D01*
X117931104Y-67378797D01*
X118027334Y-67108032D01*
X118085798Y-66826686D01*
X118105408Y-66540000D01*
X118085798Y-66253314D01*
X118027334Y-65971968D01*
X117931104Y-65701203D01*
X117931102Y-65701199D01*
X117931101Y-65701196D01*
X117798899Y-65446061D01*
X117781459Y-65421355D01*
X117633189Y-65211302D01*
X117437055Y-65001294D01*
X117437056Y-65001294D01*
X117214149Y-64819947D01*
X117214147Y-64819945D01*
X116968625Y-64670639D01*
X116705058Y-64556156D01*
X116600141Y-64526760D01*
X116428357Y-64478628D01*
X116143688Y-64439500D01*
X116143678Y-64439500D01*
X115856322Y-64439500D01*
X115856311Y-64439500D01*
X115571642Y-64478628D01*
X115332991Y-64545495D01*
X115294942Y-64556156D01*
X115294940Y-64556156D01*
X115294939Y-64556157D01*
X115031375Y-64670639D01*
X114785850Y-64819947D01*
X114562944Y-65001294D01*
X114366811Y-65211302D01*
X114201100Y-65446061D01*
X114068898Y-65701196D01*
X113972666Y-65971966D01*
X113972664Y-65971974D01*
X113914201Y-66253321D01*
X113914200Y-66253327D01*
X113894592Y-66539995D01*
X113894592Y-66540004D01*
X108999999Y-66540004D01*
X108999999Y-63876352D01*
X109020001Y-63808235D01*
X109025110Y-63800876D01*
X109082953Y-63723607D01*
X109085705Y-63720191D01*
X109103127Y-63700086D01*
X109117495Y-63677728D01*
X109120022Y-63674088D01*
X109187226Y-63584315D01*
X109240968Y-63485892D01*
X109243234Y-63482075D01*
X109257600Y-63459722D01*
X109257605Y-63459710D01*
X109257610Y-63459703D01*
X109268640Y-63435550D01*
X109270644Y-63431546D01*
X109324367Y-63333161D01*
X109363551Y-63228102D01*
X109365254Y-63223991D01*
X109376293Y-63199821D01*
X109383779Y-63174324D01*
X109385181Y-63170110D01*
X109424369Y-63065046D01*
X109448198Y-62955501D01*
X109449305Y-62951164D01*
X109456790Y-62925674D01*
X109460570Y-62899376D01*
X109461363Y-62894985D01*
X109485196Y-62785428D01*
X109493195Y-62673576D01*
X109493668Y-62669179D01*
X109497452Y-62642861D01*
X109497503Y-62642508D01*
X109497463Y-62642245D01*
X109497470Y-62641813D01*
X109498106Y-62606146D01*
X109498254Y-62602841D01*
X109505610Y-62500000D01*
X109498255Y-62397163D01*
X109498106Y-62393850D01*
X109497462Y-62357752D01*
X109497513Y-62357566D01*
X109497452Y-62357139D01*
X109493668Y-62330820D01*
X109493195Y-62326423D01*
X109485196Y-62214572D01*
X109461357Y-62104988D01*
X109460574Y-62100645D01*
X109456790Y-62074326D01*
X109449309Y-62048848D01*
X109448202Y-62044517D01*
X109424369Y-61934954D01*
X109385190Y-61829911D01*
X109383774Y-61825657D01*
X109376293Y-61800179D01*
X109365253Y-61776006D01*
X109363554Y-61771903D01*
X109324367Y-61666839D01*
X109270644Y-61568453D01*
X109268636Y-61564440D01*
X109257606Y-61540287D01*
X109246999Y-61523781D01*
X109243240Y-61517931D01*
X109240947Y-61514066D01*
X109187228Y-61415688D01*
X109120046Y-61325943D01*
X109117483Y-61322251D01*
X109112478Y-61314465D01*
X109103127Y-61299914D01*
X109103120Y-61299906D01*
X109103119Y-61299904D01*
X109085739Y-61279846D01*
X109082917Y-61276344D01*
X109025132Y-61199152D01*
X109000321Y-61132632D01*
X109000000Y-61123643D01*
X109000000Y-59881182D01*
X112749500Y-59881182D01*
X112771224Y-60025311D01*
X112788604Y-60140619D01*
X112865933Y-60391314D01*
X112865938Y-60391327D01*
X112979773Y-60627706D01*
X112979777Y-60627713D01*
X113109455Y-60817914D01*
X113127567Y-60844479D01*
X113306019Y-61036805D01*
X113511143Y-61200386D01*
X113511146Y-61200388D01*
X113738352Y-61331566D01*
X113738356Y-61331567D01*
X113738357Y-61331568D01*
X113982584Y-61427420D01*
X114238370Y-61485802D01*
X114390408Y-61497195D01*
X114434503Y-61500500D01*
X114434506Y-61500500D01*
X117565497Y-61500500D01*
X117606516Y-61497425D01*
X117761630Y-61485802D01*
X118017416Y-61427420D01*
X118261643Y-61331568D01*
X118261645Y-61331566D01*
X118261647Y-61331566D01*
X118375250Y-61265977D01*
X118488857Y-61200386D01*
X118693981Y-61036805D01*
X118872433Y-60844479D01*
X119020228Y-60627704D01*
X119134063Y-60391323D01*
X119211396Y-60140615D01*
X119250500Y-59881182D01*
X119250500Y-59618818D01*
X119211396Y-59359385D01*
X119211395Y-59359383D01*
X119210693Y-59354723D01*
X119212800Y-59354405D01*
X119216567Y-59292336D01*
X119258497Y-59235044D01*
X119324746Y-59209516D01*
X119354578Y-59211650D01*
X119354723Y-59210693D01*
X119359383Y-59211395D01*
X119359385Y-59211396D01*
X119618818Y-59250500D01*
X119618823Y-59250500D01*
X119881177Y-59250500D01*
X119881182Y-59250500D01*
X120140615Y-59211396D01*
X120140617Y-59211395D01*
X120140619Y-59211395D01*
X120391314Y-59134066D01*
X120391316Y-59134064D01*
X120391323Y-59134063D01*
X120627704Y-59020228D01*
X120844479Y-58872433D01*
X121036805Y-58693981D01*
X121200386Y-58488857D01*
X121282673Y-58346331D01*
X121331566Y-58261647D01*
X121331568Y-58261643D01*
X121427420Y-58017416D01*
X121485802Y-57761630D01*
X121500500Y-57565494D01*
X121500500Y-54434506D01*
X121485802Y-54238370D01*
X121427420Y-53982584D01*
X121331568Y-53738357D01*
X121331567Y-53738356D01*
X121331566Y-53738352D01*
X121200388Y-53511146D01*
X121191499Y-53500000D01*
X121036805Y-53306019D01*
X120844479Y-53127567D01*
X120844472Y-53127562D01*
X120627713Y-52979777D01*
X120627706Y-52979773D01*
X120391327Y-52865938D01*
X120391314Y-52865933D01*
X120140619Y-52788604D01*
X120025311Y-52771224D01*
X119881182Y-52749500D01*
X119618818Y-52749500D01*
X119489101Y-52769052D01*
X119359380Y-52788604D01*
X119108685Y-52865933D01*
X119108672Y-52865938D01*
X118872293Y-52979773D01*
X118872286Y-52979777D01*
X118655527Y-53127562D01*
X118655522Y-53127566D01*
X118463192Y-53306022D01*
X118346331Y-53452560D01*
X118288220Y-53493348D01*
X118247821Y-53500000D01*
X113500000Y-53500000D01*
X113500000Y-58247821D01*
X113479998Y-58315942D01*
X113452560Y-58346331D01*
X113306022Y-58463192D01*
X113127566Y-58655522D01*
X113127562Y-58655527D01*
X112979777Y-58872286D01*
X112979773Y-58872293D01*
X112865938Y-59108672D01*
X112865933Y-59108685D01*
X112788604Y-59359380D01*
X112766879Y-59503514D01*
X112749500Y-59618818D01*
X112749500Y-59881182D01*
X109000000Y-59881182D01*
X109000000Y-49626500D01*
X109020002Y-49558379D01*
X109073658Y-49511886D01*
X109126000Y-49500500D01*
X122374000Y-49500500D01*
X122442121Y-49520502D01*
G37*
%TD.AperFunction*%
%TD*%
%TA.AperFunction,Conductor*%
%TO.N,+15V*%
G36*
X76942121Y-49520502D02*
G01*
X76988614Y-49574158D01*
X77000000Y-49626500D01*
X77000000Y-75373500D01*
X76979998Y-75441621D01*
X76926342Y-75488114D01*
X76874000Y-75499500D01*
X52052397Y-75499500D01*
X51984276Y-75479498D01*
X51963302Y-75462595D01*
X50037405Y-73536697D01*
X50003379Y-73474385D01*
X50000500Y-73447602D01*
X50000500Y-70565497D01*
X52499500Y-70565497D01*
X52514198Y-70761632D01*
X52572580Y-71017417D01*
X52572581Y-71017419D01*
X52668430Y-71261639D01*
X52668433Y-71261647D01*
X52799611Y-71488853D01*
X52799613Y-71488856D01*
X52799614Y-71488857D01*
X52963195Y-71693981D01*
X53155521Y-71872433D01*
X53155527Y-71872437D01*
X53372286Y-72020222D01*
X53372293Y-72020226D01*
X53372296Y-72020228D01*
X53508570Y-72085854D01*
X53608672Y-72134061D01*
X53608685Y-72134066D01*
X53859380Y-72211395D01*
X53859383Y-72211395D01*
X53859385Y-72211396D01*
X54118818Y-72250500D01*
X54118823Y-72250500D01*
X54381177Y-72250500D01*
X54381182Y-72250500D01*
X54640615Y-72211396D01*
X54640617Y-72211395D01*
X54640619Y-72211395D01*
X54891314Y-72134066D01*
X54891316Y-72134064D01*
X54891323Y-72134063D01*
X55127704Y-72020228D01*
X55344479Y-71872433D01*
X55536805Y-71693981D01*
X55594640Y-71621457D01*
X55653669Y-71547440D01*
X55711780Y-71506652D01*
X55752179Y-71500000D01*
X60500000Y-71500000D01*
X60500000Y-66752177D01*
X60520002Y-66684056D01*
X60547441Y-66653666D01*
X60689970Y-66540004D01*
X69394592Y-66540004D01*
X69414200Y-66826672D01*
X69414201Y-66826678D01*
X69414202Y-66826686D01*
X69446264Y-66980980D01*
X69472664Y-67108025D01*
X69472666Y-67108033D01*
X69568898Y-67378803D01*
X69701099Y-67633936D01*
X69866811Y-67868698D01*
X70062944Y-68078705D01*
X70062943Y-68078705D01*
X70062947Y-68078708D01*
X70285853Y-68260055D01*
X70531375Y-68409361D01*
X70794942Y-68523844D01*
X71071642Y-68601370D01*
X71071642Y-68601371D01*
X71356311Y-68640499D01*
X71356322Y-68640500D01*
X71643678Y-68640500D01*
X71643688Y-68640499D01*
X71851927Y-68611876D01*
X71928358Y-68601371D01*
X72205058Y-68523844D01*
X72468625Y-68409361D01*
X72714147Y-68260055D01*
X72937053Y-68078708D01*
X73133189Y-67868698D01*
X73298901Y-67633936D01*
X73431104Y-67378797D01*
X73527334Y-67108032D01*
X73585798Y-66826686D01*
X73605408Y-66540000D01*
X73605189Y-66536805D01*
X73585799Y-66253327D01*
X73585798Y-66253321D01*
X73585798Y-66253314D01*
X73527334Y-65971968D01*
X73431104Y-65701203D01*
X73431102Y-65701199D01*
X73431101Y-65701196D01*
X73298899Y-65446061D01*
X73281459Y-65421355D01*
X73133189Y-65211302D01*
X72937055Y-65001294D01*
X72937056Y-65001294D01*
X72714149Y-64819947D01*
X72714147Y-64819945D01*
X72468625Y-64670639D01*
X72205058Y-64556156D01*
X72100141Y-64526760D01*
X71928357Y-64478628D01*
X71643688Y-64439500D01*
X71643678Y-64439500D01*
X71356322Y-64439500D01*
X71356311Y-64439500D01*
X71071642Y-64478628D01*
X70832991Y-64545495D01*
X70794942Y-64556156D01*
X70794940Y-64556156D01*
X70794939Y-64556157D01*
X70531375Y-64670639D01*
X70285850Y-64819947D01*
X70062944Y-65001294D01*
X69866811Y-65211302D01*
X69701100Y-65446061D01*
X69568898Y-65701196D01*
X69472666Y-65971966D01*
X69472664Y-65971974D01*
X69414201Y-66253321D01*
X69414200Y-66253327D01*
X69394592Y-66539995D01*
X69394592Y-66540004D01*
X60689970Y-66540004D01*
X60693981Y-66536805D01*
X60872433Y-66344479D01*
X61020228Y-66127704D01*
X61134063Y-65891323D01*
X61192707Y-65701203D01*
X61211395Y-65640619D01*
X61240720Y-65446064D01*
X61250500Y-65381182D01*
X61250500Y-65118818D01*
X61211396Y-64859385D01*
X61211395Y-64859383D01*
X61211395Y-64859380D01*
X61134066Y-64608685D01*
X61134061Y-64608672D01*
X61071435Y-64478628D01*
X61020228Y-64372296D01*
X61020226Y-64372293D01*
X61020222Y-64372286D01*
X60872437Y-64155527D01*
X60872433Y-64155521D01*
X60693981Y-63963195D01*
X60488857Y-63799614D01*
X60488852Y-63799611D01*
X60488853Y-63799611D01*
X60261647Y-63668433D01*
X60261639Y-63668430D01*
X60017419Y-63572581D01*
X60017417Y-63572580D01*
X59761632Y-63514198D01*
X59565497Y-63499500D01*
X59565494Y-63499500D01*
X56434506Y-63499500D01*
X56434503Y-63499500D01*
X56238367Y-63514198D01*
X55982582Y-63572580D01*
X55982580Y-63572581D01*
X55738360Y-63668430D01*
X55738352Y-63668433D01*
X55511146Y-63799611D01*
X55306018Y-63963195D01*
X55127566Y-64155522D01*
X55127562Y-64155527D01*
X54979777Y-64372286D01*
X54979773Y-64372293D01*
X54865938Y-64608672D01*
X54865933Y-64608685D01*
X54788604Y-64859380D01*
X54767215Y-65001292D01*
X54749500Y-65118818D01*
X54749500Y-65381182D01*
X54759280Y-65446064D01*
X54789307Y-65645276D01*
X54787228Y-65645589D01*
X54783384Y-65707795D01*
X54741390Y-65765040D01*
X54675113Y-65790494D01*
X54645417Y-65788369D01*
X54645276Y-65789307D01*
X54640617Y-65788604D01*
X54640615Y-65788604D01*
X54381182Y-65749500D01*
X54118818Y-65749500D01*
X53989101Y-65769052D01*
X53859380Y-65788604D01*
X53608685Y-65865933D01*
X53608672Y-65865938D01*
X53372293Y-65979773D01*
X53372286Y-65979777D01*
X53155527Y-66127562D01*
X53155522Y-66127566D01*
X52963195Y-66306018D01*
X52799611Y-66511146D01*
X52668433Y-66738352D01*
X52668430Y-66738360D01*
X52572581Y-66982580D01*
X52572580Y-66982582D01*
X52514198Y-67238367D01*
X52499500Y-67434503D01*
X52499500Y-70565497D01*
X50000500Y-70565497D01*
X50000500Y-59881182D01*
X54749500Y-59881182D01*
X54755199Y-59918989D01*
X54788604Y-60140619D01*
X54865933Y-60391314D01*
X54865938Y-60391327D01*
X54979773Y-60627706D01*
X54979777Y-60627713D01*
X55115231Y-60826386D01*
X55127567Y-60844479D01*
X55306019Y-61036805D01*
X55511143Y-61200386D01*
X55511146Y-61200388D01*
X55738352Y-61331566D01*
X55738356Y-61331567D01*
X55738357Y-61331568D01*
X55982584Y-61427420D01*
X56238370Y-61485802D01*
X56390408Y-61497195D01*
X56434503Y-61500500D01*
X56434506Y-61500500D01*
X59565497Y-61500500D01*
X59606516Y-61497425D01*
X59761630Y-61485802D01*
X60017416Y-61427420D01*
X60261643Y-61331568D01*
X60261645Y-61331566D01*
X60261647Y-61331566D01*
X60375250Y-61265977D01*
X60488857Y-61200386D01*
X60693981Y-61036805D01*
X60728132Y-60999999D01*
X65494390Y-60999999D01*
X65502387Y-61111819D01*
X65502548Y-61116315D01*
X65502548Y-61142865D01*
X65504753Y-61158197D01*
X65506326Y-61169139D01*
X65506805Y-61173601D01*
X65514803Y-61285427D01*
X65538629Y-61394958D01*
X65539428Y-61399385D01*
X65543206Y-61425663D01*
X65550690Y-61451150D01*
X65551802Y-61455509D01*
X65575628Y-61565037D01*
X65575630Y-61565044D01*
X65614807Y-61670084D01*
X65616227Y-61674351D01*
X65623705Y-61699816D01*
X65634735Y-61723969D01*
X65636456Y-61728126D01*
X65675633Y-61833162D01*
X65729345Y-61931529D01*
X65731359Y-61935552D01*
X65742392Y-61959712D01*
X65756755Y-61982061D01*
X65759050Y-61985930D01*
X65812770Y-62084309D01*
X65812772Y-62084312D01*
X65812774Y-62084315D01*
X65879962Y-62174068D01*
X65882522Y-62177756D01*
X65896870Y-62200084D01*
X65914256Y-62220147D01*
X65917073Y-62223642D01*
X65984261Y-62313395D01*
X66063523Y-62392657D01*
X66066582Y-62395942D01*
X66083978Y-62416019D01*
X66104056Y-62433416D01*
X66107334Y-62436468D01*
X66186605Y-62515739D01*
X66276344Y-62582917D01*
X66276346Y-62582918D01*
X66279841Y-62585734D01*
X66299914Y-62603127D01*
X66299916Y-62603128D01*
X66322247Y-62617480D01*
X66325940Y-62620044D01*
X66415685Y-62687226D01*
X66415687Y-62687227D01*
X66514064Y-62740946D01*
X66517927Y-62743237D01*
X66524511Y-62747468D01*
X66540288Y-62757607D01*
X66564440Y-62768636D01*
X66568453Y-62770644D01*
X66666839Y-62824367D01*
X66771903Y-62863554D01*
X66776006Y-62865253D01*
X66800179Y-62876293D01*
X66808452Y-62878722D01*
X66825648Y-62883772D01*
X66829916Y-62885192D01*
X66860394Y-62896559D01*
X66934954Y-62924369D01*
X67044517Y-62948202D01*
X67048848Y-62949309D01*
X67054284Y-62950905D01*
X67074326Y-62956790D01*
X67100645Y-62960574D01*
X67104988Y-62961357D01*
X67214572Y-62985196D01*
X67326423Y-62993195D01*
X67330820Y-62993668D01*
X67350468Y-62996492D01*
X67357135Y-62997452D01*
X67383683Y-62997452D01*
X67388179Y-62997613D01*
X67426050Y-63000321D01*
X67500000Y-63005610D01*
X67573949Y-63000321D01*
X67611821Y-62997613D01*
X67616317Y-62997452D01*
X67642865Y-62997452D01*
X67649531Y-62996492D01*
X67669179Y-62993667D01*
X67673548Y-62993197D01*
X67785428Y-62985196D01*
X67894985Y-62961363D01*
X67899376Y-62960570D01*
X67925674Y-62956790D01*
X67951164Y-62949305D01*
X67955501Y-62948198D01*
X68065046Y-62924369D01*
X68170110Y-62885181D01*
X68174324Y-62883779D01*
X68199821Y-62876293D01*
X68223991Y-62865254D01*
X68228102Y-62863551D01*
X68333161Y-62824367D01*
X68431546Y-62770644D01*
X68435550Y-62768640D01*
X68459705Y-62757609D01*
X68459711Y-62757604D01*
X68459722Y-62757600D01*
X68482075Y-62743234D01*
X68485907Y-62740960D01*
X68584315Y-62687226D01*
X68674094Y-62620017D01*
X68677716Y-62617503D01*
X68700086Y-62603127D01*
X68720188Y-62585708D01*
X68723604Y-62582955D01*
X68813395Y-62515739D01*
X68892686Y-62436447D01*
X68895938Y-62433420D01*
X68916020Y-62416020D01*
X68933420Y-62395938D01*
X68936447Y-62392686D01*
X69015739Y-62313395D01*
X69082955Y-62223603D01*
X69085701Y-62220195D01*
X69103127Y-62200086D01*
X69117503Y-62177716D01*
X69120017Y-62174094D01*
X69187226Y-62084315D01*
X69240968Y-61985892D01*
X69243234Y-61982075D01*
X69257600Y-61959722D01*
X69257605Y-61959710D01*
X69257610Y-61959703D01*
X69268640Y-61935550D01*
X69270644Y-61931546D01*
X69324367Y-61833161D01*
X69363551Y-61728102D01*
X69365254Y-61723991D01*
X69376293Y-61699821D01*
X69383779Y-61674324D01*
X69385181Y-61670110D01*
X69424369Y-61565046D01*
X69448198Y-61455501D01*
X69449305Y-61451164D01*
X69456790Y-61425674D01*
X69460570Y-61399376D01*
X69461363Y-61394985D01*
X69485196Y-61285428D01*
X69493195Y-61173576D01*
X69493668Y-61169179D01*
X69497015Y-61145897D01*
X69497503Y-61142508D01*
X69497463Y-61142245D01*
X69497925Y-61116315D01*
X69498106Y-61106146D01*
X69498254Y-61102841D01*
X69505610Y-61000000D01*
X69498255Y-60897163D01*
X69498106Y-60893850D01*
X69497462Y-60857752D01*
X69497513Y-60857566D01*
X69497452Y-60857139D01*
X69493668Y-60830820D01*
X69493195Y-60826423D01*
X69485196Y-60714572D01*
X69461357Y-60604988D01*
X69460574Y-60600645D01*
X69456790Y-60574326D01*
X69449308Y-60548846D01*
X69448202Y-60544517D01*
X69424369Y-60434954D01*
X69385192Y-60329916D01*
X69383772Y-60325648D01*
X69376293Y-60300180D01*
X69376290Y-60300173D01*
X69365253Y-60276006D01*
X69363554Y-60271903D01*
X69324367Y-60166839D01*
X69270644Y-60068453D01*
X69268636Y-60064440D01*
X69257605Y-60040285D01*
X69246996Y-60023778D01*
X69243237Y-60017926D01*
X69240946Y-60014064D01*
X69187227Y-59915687D01*
X69161393Y-59881177D01*
X69120045Y-59825942D01*
X69117480Y-59822247D01*
X69103129Y-59799917D01*
X69103128Y-59799916D01*
X69103127Y-59799914D01*
X69085731Y-59779838D01*
X69082934Y-59776367D01*
X69015739Y-59686605D01*
X68936468Y-59607334D01*
X68933416Y-59604056D01*
X68916019Y-59583978D01*
X68895942Y-59566582D01*
X68892662Y-59563528D01*
X68813395Y-59484261D01*
X68723652Y-59417080D01*
X68720150Y-59414258D01*
X68700084Y-59396871D01*
X68689620Y-59390147D01*
X68677755Y-59382521D01*
X68674059Y-59379955D01*
X68591181Y-59317914D01*
X68584315Y-59312774D01*
X68584310Y-59312771D01*
X68584309Y-59312770D01*
X68485930Y-59259050D01*
X68482061Y-59256755D01*
X68459712Y-59242392D01*
X68435552Y-59231359D01*
X68431529Y-59229345D01*
X68333162Y-59175633D01*
X68228126Y-59136456D01*
X68223969Y-59134735D01*
X68199825Y-59123709D01*
X68199821Y-59123707D01*
X68199819Y-59123706D01*
X68199816Y-59123705D01*
X68174351Y-59116227D01*
X68170084Y-59114807D01*
X68065044Y-59075630D01*
X68065040Y-59075629D01*
X67955507Y-59051802D01*
X67951143Y-59050688D01*
X67945724Y-59049096D01*
X67925662Y-59043206D01*
X67899385Y-59039428D01*
X67894958Y-59038629D01*
X67785427Y-59014803D01*
X67673601Y-59006805D01*
X67669139Y-59006326D01*
X67658197Y-59004753D01*
X67642865Y-59002548D01*
X67642861Y-59002548D01*
X67616317Y-59002548D01*
X67611821Y-59002387D01*
X67500000Y-58994390D01*
X67388179Y-59002387D01*
X67383683Y-59002548D01*
X67357137Y-59002548D01*
X67330858Y-59006326D01*
X67326386Y-59006807D01*
X67214573Y-59014803D01*
X67105042Y-59038629D01*
X67100614Y-59039428D01*
X67074332Y-59043205D01*
X67048846Y-59050690D01*
X67044487Y-59051802D01*
X66934961Y-59075628D01*
X66829917Y-59114805D01*
X66825657Y-59116223D01*
X66805979Y-59122003D01*
X66800586Y-59123587D01*
X66800170Y-59123709D01*
X66776025Y-59134736D01*
X66771871Y-59136457D01*
X66666849Y-59175629D01*
X66666838Y-59175633D01*
X66568464Y-59229348D01*
X66564442Y-59231361D01*
X66540286Y-59242392D01*
X66517946Y-59256749D01*
X66514079Y-59259044D01*
X66415689Y-59312771D01*
X66415685Y-59312774D01*
X66325938Y-59379956D01*
X66322245Y-59382520D01*
X66306335Y-59392745D01*
X66299917Y-59396869D01*
X66284655Y-59410095D01*
X66279833Y-59414271D01*
X66276342Y-59417083D01*
X66186602Y-59484263D01*
X66107336Y-59563528D01*
X66104044Y-59566593D01*
X66083979Y-59583979D01*
X66066593Y-59604044D01*
X66063528Y-59607336D01*
X65984263Y-59686602D01*
X65917079Y-59776348D01*
X65914257Y-59779850D01*
X65896880Y-59799903D01*
X65882518Y-59822248D01*
X65879955Y-59825938D01*
X65812774Y-59915685D01*
X65812771Y-59915689D01*
X65759044Y-60014079D01*
X65756749Y-60017946D01*
X65742392Y-60040286D01*
X65731361Y-60064442D01*
X65729348Y-60068464D01*
X65675633Y-60166838D01*
X65675629Y-60166849D01*
X65636457Y-60271871D01*
X65634736Y-60276025D01*
X65623708Y-60300173D01*
X65616224Y-60325653D01*
X65614806Y-60329916D01*
X65575628Y-60434961D01*
X65551802Y-60544487D01*
X65550690Y-60548846D01*
X65543205Y-60574332D01*
X65539428Y-60600614D01*
X65538629Y-60605042D01*
X65514803Y-60714573D01*
X65506807Y-60826386D01*
X65506326Y-60830858D01*
X65502548Y-60857137D01*
X65502548Y-60883683D01*
X65502387Y-60888179D01*
X65494390Y-60999999D01*
X60728132Y-60999999D01*
X60872433Y-60844479D01*
X61020228Y-60627704D01*
X61134063Y-60391323D01*
X61153005Y-60329916D01*
X61211395Y-60140619D01*
X61222877Y-60064442D01*
X61250500Y-59881182D01*
X61250500Y-59618818D01*
X61211396Y-59359385D01*
X61211395Y-59359383D01*
X61210693Y-59354723D01*
X61212800Y-59354405D01*
X61216567Y-59292336D01*
X61258497Y-59235044D01*
X61324746Y-59209516D01*
X61354578Y-59211650D01*
X61354723Y-59210693D01*
X61359383Y-59211395D01*
X61359385Y-59211396D01*
X61618818Y-59250500D01*
X61618823Y-59250500D01*
X61881177Y-59250500D01*
X61881182Y-59250500D01*
X62140615Y-59211396D01*
X62140617Y-59211395D01*
X62140619Y-59211395D01*
X62391314Y-59134066D01*
X62391316Y-59134064D01*
X62391323Y-59134063D01*
X62627704Y-59020228D01*
X62648095Y-59006326D01*
X62665601Y-58994390D01*
X62844479Y-58872433D01*
X63036805Y-58693981D01*
X63200386Y-58488857D01*
X63282673Y-58346331D01*
X63331566Y-58261647D01*
X63331568Y-58261643D01*
X63427420Y-58017416D01*
X63485802Y-57761630D01*
X63500500Y-57565494D01*
X63500500Y-54434506D01*
X63485802Y-54238370D01*
X63427420Y-53982584D01*
X63331568Y-53738357D01*
X63331567Y-53738356D01*
X63331566Y-53738352D01*
X63200388Y-53511146D01*
X63191499Y-53500000D01*
X63036805Y-53306019D01*
X62844479Y-53127567D01*
X62844472Y-53127562D01*
X62627713Y-52979777D01*
X62627706Y-52979773D01*
X62391327Y-52865938D01*
X62391314Y-52865933D01*
X62140619Y-52788604D01*
X62025311Y-52771224D01*
X61881182Y-52749500D01*
X61618818Y-52749500D01*
X61489101Y-52769052D01*
X61359380Y-52788604D01*
X61108685Y-52865933D01*
X61108672Y-52865938D01*
X60872293Y-52979773D01*
X60872286Y-52979777D01*
X60655527Y-53127562D01*
X60655522Y-53127566D01*
X60463192Y-53306022D01*
X60346331Y-53452560D01*
X60288220Y-53493348D01*
X60247821Y-53500000D01*
X55500000Y-53500000D01*
X55500000Y-58247821D01*
X55479998Y-58315942D01*
X55452560Y-58346331D01*
X55306022Y-58463192D01*
X55127566Y-58655522D01*
X55127562Y-58655527D01*
X54979777Y-58872286D01*
X54979773Y-58872293D01*
X54865938Y-59108672D01*
X54865933Y-59108685D01*
X54788604Y-59359380D01*
X54766879Y-59503514D01*
X54749500Y-59618818D01*
X54749500Y-59881182D01*
X50000500Y-59881182D01*
X50000500Y-51552396D01*
X50020502Y-51484275D01*
X50037400Y-51463306D01*
X51963302Y-49537404D01*
X52025614Y-49503379D01*
X52052397Y-49500500D01*
X76874000Y-49500500D01*
X76942121Y-49520502D01*
G37*
%TD.AperFunction*%
%TD*%
%TA.AperFunction,Conductor*%
%TO.N,+12V*%
G36*
X106942121Y-49520502D02*
G01*
X106988614Y-49574158D01*
X107000000Y-49626500D01*
X107000000Y-60463886D01*
X106979998Y-60532007D01*
X106926342Y-60578500D01*
X106918031Y-60581942D01*
X106829916Y-60614806D01*
X106825649Y-60616226D01*
X106800180Y-60623705D01*
X106776025Y-60634736D01*
X106771871Y-60636456D01*
X106666849Y-60675628D01*
X106666838Y-60675633D01*
X106568464Y-60729348D01*
X106564442Y-60731361D01*
X106540286Y-60742392D01*
X106517946Y-60756749D01*
X106514079Y-60759044D01*
X106415689Y-60812771D01*
X106415685Y-60812774D01*
X106325938Y-60879956D01*
X106322245Y-60882520D01*
X106306335Y-60892745D01*
X106299917Y-60896869D01*
X106284655Y-60910095D01*
X106279833Y-60914271D01*
X106276342Y-60917083D01*
X106186602Y-60984263D01*
X106107336Y-61063528D01*
X106104044Y-61066593D01*
X106083979Y-61083979D01*
X106066593Y-61104044D01*
X106063528Y-61107336D01*
X105984263Y-61186602D01*
X105917079Y-61276348D01*
X105914257Y-61279850D01*
X105896873Y-61299911D01*
X105892745Y-61306335D01*
X105882520Y-61322245D01*
X105879956Y-61325938D01*
X105812774Y-61415685D01*
X105812771Y-61415689D01*
X105759044Y-61514079D01*
X105756749Y-61517946D01*
X105742392Y-61540286D01*
X105731361Y-61564442D01*
X105729348Y-61568464D01*
X105675633Y-61666838D01*
X105675629Y-61666849D01*
X105636457Y-61771871D01*
X105634736Y-61776025D01*
X105623708Y-61800173D01*
X105616224Y-61825653D01*
X105614806Y-61829916D01*
X105575628Y-61934961D01*
X105551802Y-62044487D01*
X105550690Y-62048846D01*
X105543205Y-62074332D01*
X105539428Y-62100614D01*
X105538629Y-62105042D01*
X105514803Y-62214573D01*
X105506807Y-62326386D01*
X105506326Y-62330858D01*
X105502548Y-62357137D01*
X105502548Y-62383683D01*
X105502387Y-62388179D01*
X105494390Y-62499999D01*
X105502387Y-62611819D01*
X105502548Y-62616315D01*
X105502548Y-62642865D01*
X105506325Y-62669128D01*
X105506805Y-62673601D01*
X105514803Y-62785427D01*
X105538629Y-62894958D01*
X105539428Y-62899385D01*
X105543206Y-62925663D01*
X105550690Y-62951150D01*
X105551802Y-62955509D01*
X105575628Y-63065037D01*
X105575630Y-63065044D01*
X105614807Y-63170084D01*
X105616227Y-63174351D01*
X105623705Y-63199816D01*
X105634735Y-63223969D01*
X105636456Y-63228126D01*
X105675633Y-63333162D01*
X105729345Y-63431529D01*
X105731359Y-63435552D01*
X105742392Y-63459712D01*
X105756755Y-63482061D01*
X105759050Y-63485930D01*
X105812770Y-63584309D01*
X105812772Y-63584312D01*
X105812774Y-63584315D01*
X105879962Y-63674068D01*
X105882522Y-63677756D01*
X105896870Y-63700084D01*
X105914256Y-63720147D01*
X105917073Y-63723642D01*
X105984261Y-63813395D01*
X106063529Y-63892663D01*
X106066582Y-63895942D01*
X106083978Y-63916019D01*
X106104056Y-63933416D01*
X106107334Y-63936468D01*
X106181987Y-64011121D01*
X106186605Y-64015739D01*
X106276346Y-64082918D01*
X106279841Y-64085734D01*
X106299914Y-64103127D01*
X106299916Y-64103128D01*
X106322247Y-64117480D01*
X106325942Y-64120045D01*
X106415685Y-64187226D01*
X106415687Y-64187227D01*
X106514064Y-64240946D01*
X106517926Y-64243237D01*
X106523184Y-64246615D01*
X106540285Y-64257605D01*
X106564440Y-64268636D01*
X106568453Y-64270644D01*
X106666839Y-64324367D01*
X106771903Y-64363554D01*
X106776020Y-64365260D01*
X106800179Y-64376293D01*
X106825671Y-64383778D01*
X106829889Y-64385181D01*
X106918033Y-64418057D01*
X106974868Y-64460604D01*
X106999678Y-64527124D01*
X106999999Y-64536112D01*
X107000000Y-75373500D01*
X106979998Y-75441621D01*
X106926342Y-75488114D01*
X106874000Y-75499500D01*
X79126000Y-75499500D01*
X79057879Y-75479498D01*
X79011386Y-75425842D01*
X79000000Y-75373500D01*
X79000000Y-70565497D01*
X80499500Y-70565497D01*
X80514198Y-70761632D01*
X80572580Y-71017417D01*
X80572581Y-71017419D01*
X80668430Y-71261639D01*
X80668433Y-71261647D01*
X80799611Y-71488853D01*
X80799613Y-71488856D01*
X80799614Y-71488857D01*
X80963195Y-71693981D01*
X81155521Y-71872433D01*
X81155527Y-71872437D01*
X81372286Y-72020222D01*
X81372293Y-72020226D01*
X81372296Y-72020228D01*
X81508570Y-72085854D01*
X81608672Y-72134061D01*
X81608685Y-72134066D01*
X81859380Y-72211395D01*
X81859383Y-72211395D01*
X81859385Y-72211396D01*
X82118818Y-72250500D01*
X82118823Y-72250500D01*
X82381177Y-72250500D01*
X82381182Y-72250500D01*
X82640615Y-72211396D01*
X82640617Y-72211395D01*
X82640619Y-72211395D01*
X82891314Y-72134066D01*
X82891316Y-72134064D01*
X82891323Y-72134063D01*
X83127704Y-72020228D01*
X83344479Y-71872433D01*
X83536805Y-71693981D01*
X83594640Y-71621457D01*
X83653669Y-71547440D01*
X83711780Y-71506652D01*
X83752179Y-71500000D01*
X88500000Y-71500000D01*
X88500000Y-70565497D01*
X94499500Y-70565497D01*
X94514198Y-70761632D01*
X94572580Y-71017417D01*
X94572581Y-71017419D01*
X94668430Y-71261639D01*
X94668433Y-71261647D01*
X94799611Y-71488853D01*
X94799613Y-71488856D01*
X94799614Y-71488857D01*
X94963195Y-71693981D01*
X95155521Y-71872433D01*
X95155527Y-71872437D01*
X95372286Y-72020222D01*
X95372293Y-72020226D01*
X95372296Y-72020228D01*
X95508570Y-72085854D01*
X95608672Y-72134061D01*
X95608685Y-72134066D01*
X95859380Y-72211395D01*
X95859383Y-72211395D01*
X95859385Y-72211396D01*
X96118818Y-72250500D01*
X96118823Y-72250500D01*
X96381177Y-72250500D01*
X96381182Y-72250500D01*
X96640615Y-72211396D01*
X96640617Y-72211395D01*
X96640619Y-72211395D01*
X96891314Y-72134066D01*
X96891316Y-72134064D01*
X96891323Y-72134063D01*
X97127704Y-72020228D01*
X97344479Y-71872433D01*
X97536805Y-71693981D01*
X97594640Y-71621457D01*
X97653669Y-71547440D01*
X97711780Y-71506652D01*
X97752179Y-71500000D01*
X102500000Y-71500000D01*
X102499999Y-66752177D01*
X102520001Y-66684056D01*
X102547438Y-66653667D01*
X102693981Y-66536805D01*
X102872433Y-66344479D01*
X103020228Y-66127704D01*
X103134063Y-65891323D01*
X103209862Y-65645589D01*
X103211395Y-65640619D01*
X103211396Y-65640615D01*
X103250500Y-65381182D01*
X103250500Y-65118818D01*
X103211396Y-64859385D01*
X103211395Y-64859383D01*
X103211395Y-64859380D01*
X103134066Y-64608685D01*
X103134061Y-64608672D01*
X103045305Y-64424369D01*
X103020228Y-64372296D01*
X103020226Y-64372293D01*
X103020222Y-64372286D01*
X102872437Y-64155527D01*
X102872433Y-64155521D01*
X102693981Y-63963195D01*
X102488857Y-63799614D01*
X102488852Y-63799611D01*
X102488853Y-63799611D01*
X102261647Y-63668433D01*
X102261639Y-63668430D01*
X102017419Y-63572581D01*
X102017417Y-63572580D01*
X101761632Y-63514198D01*
X101565497Y-63499500D01*
X101565494Y-63499500D01*
X98434506Y-63499500D01*
X98434503Y-63499500D01*
X98238367Y-63514198D01*
X97982582Y-63572580D01*
X97982580Y-63572581D01*
X97738360Y-63668430D01*
X97738352Y-63668433D01*
X97511146Y-63799611D01*
X97306018Y-63963195D01*
X97127566Y-64155522D01*
X97127562Y-64155527D01*
X96979777Y-64372286D01*
X96979773Y-64372293D01*
X96865938Y-64608672D01*
X96865933Y-64608685D01*
X96788604Y-64859380D01*
X96766879Y-65003514D01*
X96749500Y-65118818D01*
X96749500Y-65381182D01*
X96788604Y-65640615D01*
X96789307Y-65645276D01*
X96787228Y-65645589D01*
X96783384Y-65707795D01*
X96741390Y-65765040D01*
X96675113Y-65790494D01*
X96645417Y-65788369D01*
X96645276Y-65789307D01*
X96640617Y-65788604D01*
X96640615Y-65788604D01*
X96381182Y-65749500D01*
X96118818Y-65749500D01*
X95989101Y-65769052D01*
X95859380Y-65788604D01*
X95608685Y-65865933D01*
X95608672Y-65865938D01*
X95372293Y-65979773D01*
X95372286Y-65979777D01*
X95155527Y-66127562D01*
X95155522Y-66127566D01*
X94963195Y-66306018D01*
X94799611Y-66511146D01*
X94668433Y-66738352D01*
X94668430Y-66738360D01*
X94572581Y-66982580D01*
X94572580Y-66982582D01*
X94514198Y-67238367D01*
X94499500Y-67434503D01*
X94499500Y-70565497D01*
X88500000Y-70565497D01*
X88499999Y-66752177D01*
X88520001Y-66684056D01*
X88547438Y-66653667D01*
X88693981Y-66536805D01*
X88872433Y-66344479D01*
X89020228Y-66127704D01*
X89134063Y-65891323D01*
X89209862Y-65645589D01*
X89211395Y-65640619D01*
X89211396Y-65640615D01*
X89250500Y-65381182D01*
X89250500Y-65118818D01*
X89211396Y-64859385D01*
X89211395Y-64859383D01*
X89211395Y-64859380D01*
X89134066Y-64608685D01*
X89134061Y-64608672D01*
X89045305Y-64424369D01*
X89020228Y-64372296D01*
X89020226Y-64372293D01*
X89020222Y-64372286D01*
X88872437Y-64155527D01*
X88872433Y-64155521D01*
X88693981Y-63963195D01*
X88488857Y-63799614D01*
X88488852Y-63799611D01*
X88488853Y-63799611D01*
X88261647Y-63668433D01*
X88261639Y-63668430D01*
X88017419Y-63572581D01*
X88017417Y-63572580D01*
X87761632Y-63514198D01*
X87565497Y-63499500D01*
X87565494Y-63499500D01*
X84434506Y-63499500D01*
X84434503Y-63499500D01*
X84238367Y-63514198D01*
X83982582Y-63572580D01*
X83982580Y-63572581D01*
X83738360Y-63668430D01*
X83738352Y-63668433D01*
X83511146Y-63799611D01*
X83306018Y-63963195D01*
X83127566Y-64155522D01*
X83127562Y-64155527D01*
X82979777Y-64372286D01*
X82979773Y-64372293D01*
X82865938Y-64608672D01*
X82865933Y-64608685D01*
X82788604Y-64859380D01*
X82766879Y-65003514D01*
X82749500Y-65118818D01*
X82749500Y-65381182D01*
X82788604Y-65640615D01*
X82789307Y-65645276D01*
X82787228Y-65645589D01*
X82783384Y-65707795D01*
X82741390Y-65765040D01*
X82675113Y-65790494D01*
X82645417Y-65788369D01*
X82645276Y-65789307D01*
X82640617Y-65788604D01*
X82640615Y-65788604D01*
X82381182Y-65749500D01*
X82118818Y-65749500D01*
X81989101Y-65769052D01*
X81859380Y-65788604D01*
X81608685Y-65865933D01*
X81608672Y-65865938D01*
X81372293Y-65979773D01*
X81372286Y-65979777D01*
X81155527Y-66127562D01*
X81155522Y-66127566D01*
X80963195Y-66306018D01*
X80799611Y-66511146D01*
X80668433Y-66738352D01*
X80668430Y-66738360D01*
X80572581Y-66982580D01*
X80572580Y-66982582D01*
X80514198Y-67238367D01*
X80499500Y-67434503D01*
X80499500Y-70565497D01*
X79000000Y-70565497D01*
X79000000Y-59881182D01*
X82749500Y-59881182D01*
X82771224Y-60025311D01*
X82788604Y-60140619D01*
X82865933Y-60391314D01*
X82865938Y-60391327D01*
X82979773Y-60627706D01*
X82979777Y-60627713D01*
X83109455Y-60817914D01*
X83127567Y-60844479D01*
X83306019Y-61036805D01*
X83511143Y-61200386D01*
X83511146Y-61200388D01*
X83738352Y-61331566D01*
X83738356Y-61331567D01*
X83738357Y-61331568D01*
X83982584Y-61427420D01*
X84238370Y-61485802D01*
X84390408Y-61497195D01*
X84434503Y-61500500D01*
X84434506Y-61500500D01*
X87565497Y-61500500D01*
X87606516Y-61497425D01*
X87761630Y-61485802D01*
X88017416Y-61427420D01*
X88261643Y-61331568D01*
X88261645Y-61331566D01*
X88261647Y-61331566D01*
X88375250Y-61265977D01*
X88488857Y-61200386D01*
X88693981Y-61036805D01*
X88872433Y-60844479D01*
X89020228Y-60627704D01*
X89134063Y-60391323D01*
X89211396Y-60140615D01*
X89250500Y-59881182D01*
X96749500Y-59881182D01*
X96771224Y-60025311D01*
X96788604Y-60140619D01*
X96865933Y-60391314D01*
X96865938Y-60391327D01*
X96979773Y-60627706D01*
X96979777Y-60627713D01*
X97109455Y-60817914D01*
X97127567Y-60844479D01*
X97306019Y-61036805D01*
X97511143Y-61200386D01*
X97511146Y-61200388D01*
X97738352Y-61331566D01*
X97738356Y-61331567D01*
X97738357Y-61331568D01*
X97982584Y-61427420D01*
X98238370Y-61485802D01*
X98390408Y-61497195D01*
X98434503Y-61500500D01*
X98434506Y-61500500D01*
X101565497Y-61500500D01*
X101606516Y-61497425D01*
X101761630Y-61485802D01*
X102017416Y-61427420D01*
X102261643Y-61331568D01*
X102261645Y-61331566D01*
X102261647Y-61331566D01*
X102375250Y-61265977D01*
X102488857Y-61200386D01*
X102693981Y-61036805D01*
X102872433Y-60844479D01*
X103020228Y-60627704D01*
X103134063Y-60391323D01*
X103211396Y-60140615D01*
X103250500Y-59881182D01*
X103250500Y-59618818D01*
X103211396Y-59359385D01*
X103211395Y-59359383D01*
X103210693Y-59354723D01*
X103212800Y-59354405D01*
X103216567Y-59292336D01*
X103258497Y-59235044D01*
X103324746Y-59209516D01*
X103354578Y-59211650D01*
X103354723Y-59210693D01*
X103359383Y-59211395D01*
X103359385Y-59211396D01*
X103618818Y-59250500D01*
X103618823Y-59250500D01*
X103881177Y-59250500D01*
X103881182Y-59250500D01*
X104140615Y-59211396D01*
X104140617Y-59211395D01*
X104140619Y-59211395D01*
X104391314Y-59134066D01*
X104391316Y-59134064D01*
X104391323Y-59134063D01*
X104627704Y-59020228D01*
X104844479Y-58872433D01*
X105036805Y-58693981D01*
X105200386Y-58488857D01*
X105282673Y-58346331D01*
X105331566Y-58261647D01*
X105331568Y-58261643D01*
X105427420Y-58017416D01*
X105485802Y-57761630D01*
X105500500Y-57565494D01*
X105500500Y-54434506D01*
X105485802Y-54238370D01*
X105427420Y-53982584D01*
X105331568Y-53738357D01*
X105331567Y-53738356D01*
X105331566Y-53738352D01*
X105200388Y-53511146D01*
X105191499Y-53500000D01*
X105036805Y-53306019D01*
X104844479Y-53127567D01*
X104844472Y-53127562D01*
X104627713Y-52979777D01*
X104627706Y-52979773D01*
X104391327Y-52865938D01*
X104391314Y-52865933D01*
X104140619Y-52788604D01*
X104025311Y-52771224D01*
X103881182Y-52749500D01*
X103618818Y-52749500D01*
X103489101Y-52769052D01*
X103359380Y-52788604D01*
X103108685Y-52865933D01*
X103108672Y-52865938D01*
X102872293Y-52979773D01*
X102872286Y-52979777D01*
X102655527Y-53127562D01*
X102655522Y-53127566D01*
X102463192Y-53306022D01*
X102346331Y-53452560D01*
X102288220Y-53493348D01*
X102247821Y-53500000D01*
X97500000Y-53500000D01*
X97500000Y-58247821D01*
X97479998Y-58315942D01*
X97452560Y-58346331D01*
X97306022Y-58463192D01*
X97127566Y-58655522D01*
X97127562Y-58655527D01*
X96979777Y-58872286D01*
X96979773Y-58872293D01*
X96865938Y-59108672D01*
X96865933Y-59108685D01*
X96788604Y-59359380D01*
X96766879Y-59503514D01*
X96749500Y-59618818D01*
X96749500Y-59881182D01*
X89250500Y-59881182D01*
X89250500Y-59618818D01*
X89211396Y-59359385D01*
X89211395Y-59359383D01*
X89210693Y-59354723D01*
X89212800Y-59354405D01*
X89216567Y-59292336D01*
X89258497Y-59235044D01*
X89324746Y-59209516D01*
X89354578Y-59211650D01*
X89354723Y-59210693D01*
X89359383Y-59211395D01*
X89359385Y-59211396D01*
X89618818Y-59250500D01*
X89618823Y-59250500D01*
X89881177Y-59250500D01*
X89881182Y-59250500D01*
X90140615Y-59211396D01*
X90140617Y-59211395D01*
X90140619Y-59211395D01*
X90391314Y-59134066D01*
X90391316Y-59134064D01*
X90391323Y-59134063D01*
X90627704Y-59020228D01*
X90844479Y-58872433D01*
X91036805Y-58693981D01*
X91200386Y-58488857D01*
X91282673Y-58346331D01*
X91331566Y-58261647D01*
X91331568Y-58261643D01*
X91427420Y-58017416D01*
X91485802Y-57761630D01*
X91500500Y-57565494D01*
X91500500Y-54434506D01*
X91485802Y-54238370D01*
X91427420Y-53982584D01*
X91331568Y-53738357D01*
X91331567Y-53738356D01*
X91331566Y-53738352D01*
X91200388Y-53511146D01*
X91191499Y-53500000D01*
X91036805Y-53306019D01*
X90844479Y-53127567D01*
X90844472Y-53127562D01*
X90627713Y-52979777D01*
X90627706Y-52979773D01*
X90391327Y-52865938D01*
X90391314Y-52865933D01*
X90140619Y-52788604D01*
X90025311Y-52771224D01*
X89881182Y-52749500D01*
X89618818Y-52749500D01*
X89489101Y-52769052D01*
X89359380Y-52788604D01*
X89108685Y-52865933D01*
X89108672Y-52865938D01*
X88872293Y-52979773D01*
X88872286Y-52979777D01*
X88655527Y-53127562D01*
X88655522Y-53127566D01*
X88463192Y-53306022D01*
X88346331Y-53452560D01*
X88288220Y-53493348D01*
X88247821Y-53500000D01*
X83500000Y-53500000D01*
X83500000Y-58247821D01*
X83479998Y-58315942D01*
X83452560Y-58346331D01*
X83306022Y-58463192D01*
X83127566Y-58655522D01*
X83127562Y-58655527D01*
X82979777Y-58872286D01*
X82979773Y-58872293D01*
X82865938Y-59108672D01*
X82865933Y-59108685D01*
X82788604Y-59359380D01*
X82766879Y-59503514D01*
X82749500Y-59618818D01*
X82749500Y-59881182D01*
X79000000Y-59881182D01*
X79000000Y-49626500D01*
X79020002Y-49558379D01*
X79073658Y-49511886D01*
X79126000Y-49500500D01*
X106874000Y-49500500D01*
X106942121Y-49520502D01*
G37*
%TD.AperFunction*%
%TD*%
%TA.AperFunction,Conductor*%
%TO.N,+12P*%
G36*
X168015723Y-49520502D02*
G01*
X168036697Y-49537405D01*
X169962595Y-51463302D01*
X169996620Y-51525614D01*
X169999500Y-51552397D01*
X169999500Y-73447601D01*
X169979498Y-73515722D01*
X169962595Y-73536696D01*
X168036697Y-75462595D01*
X167974385Y-75496620D01*
X167947602Y-75499500D01*
X123626000Y-75499500D01*
X123557879Y-75479498D01*
X123511386Y-75425842D01*
X123500000Y-75373500D01*
X123500000Y-70000004D01*
X131354498Y-70000004D01*
X131374479Y-70292132D01*
X131374480Y-70292138D01*
X131374481Y-70292146D01*
X131407155Y-70449382D01*
X131434057Y-70578843D01*
X131434059Y-70578850D01*
X131532121Y-70854770D01*
X131666841Y-71114768D01*
X131835710Y-71354000D01*
X131991495Y-71520805D01*
X132035577Y-71568006D01*
X132035586Y-71568015D01*
X132262723Y-71752805D01*
X132262725Y-71752806D01*
X132262731Y-71752811D01*
X132512930Y-71904960D01*
X132781515Y-72021623D01*
X133063485Y-72100627D01*
X133353572Y-72140499D01*
X133353586Y-72140500D01*
X133646414Y-72140500D01*
X133646427Y-72140499D01*
X133861403Y-72110950D01*
X133936515Y-72100627D01*
X134218485Y-72021623D01*
X134487070Y-71904960D01*
X134737269Y-71752811D01*
X134964419Y-71568010D01*
X135164290Y-71354000D01*
X135333159Y-71114768D01*
X135467879Y-70854770D01*
X135565941Y-70578850D01*
X135625519Y-70292146D01*
X135645502Y-70000004D01*
X136434498Y-70000004D01*
X136454479Y-70292132D01*
X136454480Y-70292138D01*
X136454481Y-70292146D01*
X136487155Y-70449382D01*
X136514057Y-70578843D01*
X136514059Y-70578850D01*
X136612121Y-70854770D01*
X136746841Y-71114768D01*
X136915710Y-71354000D01*
X137071495Y-71520805D01*
X137115577Y-71568006D01*
X137115586Y-71568015D01*
X137342723Y-71752805D01*
X137342725Y-71752806D01*
X137342731Y-71752811D01*
X137592930Y-71904960D01*
X137861515Y-72021623D01*
X138143485Y-72100627D01*
X138433572Y-72140499D01*
X138433586Y-72140500D01*
X138726414Y-72140500D01*
X138726427Y-72140499D01*
X138941403Y-72110950D01*
X139016515Y-72100627D01*
X139298485Y-72021623D01*
X139567070Y-71904960D01*
X139817269Y-71752811D01*
X140044419Y-71568010D01*
X140244290Y-71354000D01*
X140413159Y-71114768D01*
X140547879Y-70854770D01*
X140645941Y-70578850D01*
X140705519Y-70292146D01*
X140725502Y-70000004D01*
X141514498Y-70000004D01*
X141534479Y-70292132D01*
X141534480Y-70292138D01*
X141534481Y-70292146D01*
X141567155Y-70449382D01*
X141594057Y-70578843D01*
X141594059Y-70578850D01*
X141692121Y-70854770D01*
X141826841Y-71114768D01*
X141995710Y-71354000D01*
X142151495Y-71520805D01*
X142195577Y-71568006D01*
X142195586Y-71568015D01*
X142422723Y-71752805D01*
X142422725Y-71752806D01*
X142422731Y-71752811D01*
X142672930Y-71904960D01*
X142941515Y-72021623D01*
X143223485Y-72100627D01*
X143513572Y-72140499D01*
X143513586Y-72140500D01*
X143806414Y-72140500D01*
X143806427Y-72140499D01*
X144021403Y-72110950D01*
X144096515Y-72100627D01*
X144378485Y-72021623D01*
X144647070Y-71904960D01*
X144897269Y-71752811D01*
X145124419Y-71568010D01*
X145324290Y-71354000D01*
X145493159Y-71114768D01*
X145627879Y-70854770D01*
X145725941Y-70578850D01*
X145785519Y-70292146D01*
X145805502Y-70000000D01*
X145785519Y-69707854D01*
X145725941Y-69421150D01*
X145627879Y-69145230D01*
X145493159Y-68885232D01*
X145324290Y-68646000D01*
X145124419Y-68431990D01*
X145124413Y-68431984D01*
X144897276Y-68247194D01*
X144897272Y-68247191D01*
X144897269Y-68247189D01*
X144647070Y-68095040D01*
X144647071Y-68095040D01*
X144647067Y-68095038D01*
X144378486Y-67978377D01*
X144096512Y-67899372D01*
X144096514Y-67899372D01*
X143806427Y-67859500D01*
X143806414Y-67859500D01*
X143513586Y-67859500D01*
X143513572Y-67859500D01*
X143223486Y-67899372D01*
X142941513Y-67978377D01*
X142672932Y-68095038D01*
X142422723Y-68247194D01*
X142195586Y-68431984D01*
X142195577Y-68431993D01*
X141995710Y-68646000D01*
X141826841Y-68885231D01*
X141826841Y-68885232D01*
X141692121Y-69145229D01*
X141594059Y-69421148D01*
X141594057Y-69421156D01*
X141534480Y-69707861D01*
X141534479Y-69707867D01*
X141514498Y-69999995D01*
X141514498Y-70000004D01*
X140725502Y-70000004D01*
X140725502Y-70000000D01*
X140705519Y-69707854D01*
X140645941Y-69421150D01*
X140547879Y-69145230D01*
X140413159Y-68885232D01*
X140244290Y-68646000D01*
X140044419Y-68431990D01*
X140044413Y-68431984D01*
X139817276Y-68247194D01*
X139817272Y-68247191D01*
X139817269Y-68247189D01*
X139567070Y-68095040D01*
X139567071Y-68095040D01*
X139567067Y-68095038D01*
X139298486Y-67978377D01*
X139016512Y-67899372D01*
X139016514Y-67899372D01*
X138726427Y-67859500D01*
X138726414Y-67859500D01*
X138433586Y-67859500D01*
X138433572Y-67859500D01*
X138143486Y-67899372D01*
X137861513Y-67978377D01*
X137592932Y-68095038D01*
X137342723Y-68247194D01*
X137115586Y-68431984D01*
X137115577Y-68431993D01*
X136915710Y-68646000D01*
X136746841Y-68885231D01*
X136746841Y-68885232D01*
X136612121Y-69145229D01*
X136514059Y-69421148D01*
X136514057Y-69421156D01*
X136454480Y-69707861D01*
X136454479Y-69707867D01*
X136434498Y-69999995D01*
X136434498Y-70000004D01*
X135645502Y-70000004D01*
X135645502Y-70000000D01*
X135625519Y-69707854D01*
X135565941Y-69421150D01*
X135467879Y-69145230D01*
X135333159Y-68885232D01*
X135164290Y-68646000D01*
X134964419Y-68431990D01*
X134964413Y-68431984D01*
X134737276Y-68247194D01*
X134737272Y-68247191D01*
X134737269Y-68247189D01*
X134487070Y-68095040D01*
X134487071Y-68095040D01*
X134487067Y-68095038D01*
X134218486Y-67978377D01*
X133936512Y-67899372D01*
X133936514Y-67899372D01*
X133646427Y-67859500D01*
X133646414Y-67859500D01*
X133353586Y-67859500D01*
X133353572Y-67859500D01*
X133063486Y-67899372D01*
X132781513Y-67978377D01*
X132512932Y-68095038D01*
X132262723Y-68247194D01*
X132035586Y-68431984D01*
X132035577Y-68431993D01*
X131835710Y-68646000D01*
X131666841Y-68885231D01*
X131666841Y-68885232D01*
X131532121Y-69145229D01*
X131434059Y-69421148D01*
X131434057Y-69421156D01*
X131374480Y-69707861D01*
X131374479Y-69707867D01*
X131354498Y-69999995D01*
X131354498Y-70000004D01*
X123500000Y-70000004D01*
X123500000Y-65999999D01*
X154994390Y-65999999D01*
X155002387Y-66111819D01*
X155002548Y-66116315D01*
X155002548Y-66142865D01*
X155004753Y-66158197D01*
X155006326Y-66169139D01*
X155006805Y-66173601D01*
X155014803Y-66285427D01*
X155038629Y-66394958D01*
X155039428Y-66399385D01*
X155043206Y-66425663D01*
X155050690Y-66451150D01*
X155051802Y-66455509D01*
X155075628Y-66565037D01*
X155075630Y-66565044D01*
X155114807Y-66670084D01*
X155116227Y-66674351D01*
X155123705Y-66699816D01*
X155134735Y-66723969D01*
X155136456Y-66728126D01*
X155175633Y-66833162D01*
X155229345Y-66931529D01*
X155231359Y-66935552D01*
X155242392Y-66959712D01*
X155256755Y-66982061D01*
X155259050Y-66985930D01*
X155312770Y-67084309D01*
X155312772Y-67084312D01*
X155312774Y-67084315D01*
X155379962Y-67174068D01*
X155382522Y-67177756D01*
X155396870Y-67200084D01*
X155414256Y-67220147D01*
X155417073Y-67223642D01*
X155484261Y-67313395D01*
X155563523Y-67392657D01*
X155566582Y-67395942D01*
X155583978Y-67416019D01*
X155604056Y-67433416D01*
X155607334Y-67436468D01*
X155686605Y-67515739D01*
X155776344Y-67582917D01*
X155776346Y-67582918D01*
X155779841Y-67585734D01*
X155799914Y-67603127D01*
X155799916Y-67603128D01*
X155822247Y-67617480D01*
X155825940Y-67620044D01*
X155915685Y-67687226D01*
X155915687Y-67687227D01*
X156014064Y-67740946D01*
X156017927Y-67743237D01*
X156024511Y-67747468D01*
X156040288Y-67757607D01*
X156064440Y-67768636D01*
X156068453Y-67770644D01*
X156166839Y-67824367D01*
X156271903Y-67863554D01*
X156276006Y-67865253D01*
X156300179Y-67876293D01*
X156308452Y-67878722D01*
X156325648Y-67883772D01*
X156329916Y-67885192D01*
X156360394Y-67896559D01*
X156434954Y-67924369D01*
X156544517Y-67948202D01*
X156548848Y-67949309D01*
X156554284Y-67950905D01*
X156574326Y-67956790D01*
X156600645Y-67960574D01*
X156604988Y-67961357D01*
X156714572Y-67985196D01*
X156826423Y-67993195D01*
X156830820Y-67993668D01*
X156850468Y-67996492D01*
X156857135Y-67997452D01*
X156883683Y-67997452D01*
X156888179Y-67997613D01*
X156926050Y-68000321D01*
X157000000Y-68005610D01*
X157073949Y-68000321D01*
X157111821Y-67997613D01*
X157116317Y-67997452D01*
X157142865Y-67997452D01*
X157149531Y-67996492D01*
X157169179Y-67993667D01*
X157173548Y-67993197D01*
X157285428Y-67985196D01*
X157394985Y-67961363D01*
X157399376Y-67960570D01*
X157425674Y-67956790D01*
X157451164Y-67949305D01*
X157455501Y-67948198D01*
X157565046Y-67924369D01*
X157670110Y-67885181D01*
X157674324Y-67883779D01*
X157699821Y-67876293D01*
X157723991Y-67865254D01*
X157728102Y-67863551D01*
X157833161Y-67824367D01*
X157931546Y-67770644D01*
X157935550Y-67768640D01*
X157959705Y-67757609D01*
X157959711Y-67757604D01*
X157959722Y-67757600D01*
X157982075Y-67743234D01*
X157985907Y-67740960D01*
X158084315Y-67687226D01*
X158174094Y-67620017D01*
X158177716Y-67617503D01*
X158200086Y-67603127D01*
X158220188Y-67585708D01*
X158223604Y-67582955D01*
X158313395Y-67515739D01*
X158392686Y-67436447D01*
X158395938Y-67433420D01*
X158416020Y-67416020D01*
X158433420Y-67395938D01*
X158436447Y-67392686D01*
X158515739Y-67313395D01*
X158582955Y-67223603D01*
X158585701Y-67220195D01*
X158603127Y-67200086D01*
X158617503Y-67177716D01*
X158620017Y-67174094D01*
X158687226Y-67084315D01*
X158740968Y-66985892D01*
X158743234Y-66982075D01*
X158757600Y-66959722D01*
X158757605Y-66959710D01*
X158757610Y-66959703D01*
X158768640Y-66935550D01*
X158770644Y-66931546D01*
X158824367Y-66833161D01*
X158863551Y-66728102D01*
X158865254Y-66723991D01*
X158876293Y-66699821D01*
X158883779Y-66674324D01*
X158885181Y-66670110D01*
X158924369Y-66565046D01*
X158948198Y-66455501D01*
X158949305Y-66451164D01*
X158956790Y-66425674D01*
X158960570Y-66399376D01*
X158961363Y-66394985D01*
X158985196Y-66285428D01*
X158993195Y-66173576D01*
X158993668Y-66169179D01*
X158997015Y-66145897D01*
X158997503Y-66142508D01*
X158997463Y-66142245D01*
X158997925Y-66116315D01*
X158998106Y-66106146D01*
X158998254Y-66102841D01*
X159005610Y-66000000D01*
X158998255Y-65897163D01*
X158998106Y-65893850D01*
X158997462Y-65857752D01*
X158997513Y-65857566D01*
X158997452Y-65857139D01*
X158993668Y-65830820D01*
X158993195Y-65826423D01*
X158985196Y-65714572D01*
X158961357Y-65604988D01*
X158960574Y-65600645D01*
X158956790Y-65574326D01*
X158949308Y-65548846D01*
X158948202Y-65544517D01*
X158924369Y-65434954D01*
X158885192Y-65329916D01*
X158883772Y-65325648D01*
X158876293Y-65300180D01*
X158876290Y-65300173D01*
X158865253Y-65276006D01*
X158863554Y-65271903D01*
X158824367Y-65166839D01*
X158770644Y-65068453D01*
X158768636Y-65064440D01*
X158757605Y-65040285D01*
X158746996Y-65023778D01*
X158743237Y-65017926D01*
X158740946Y-65014064D01*
X158687227Y-64915687D01*
X158620046Y-64825943D01*
X158617480Y-64822247D01*
X158603129Y-64799917D01*
X158603128Y-64799916D01*
X158603127Y-64799914D01*
X158585731Y-64779838D01*
X158582934Y-64776367D01*
X158515739Y-64686605D01*
X158436468Y-64607334D01*
X158433416Y-64604056D01*
X158416019Y-64583978D01*
X158395942Y-64566582D01*
X158392662Y-64563528D01*
X158313395Y-64484261D01*
X158223652Y-64417080D01*
X158220150Y-64414258D01*
X158200084Y-64396871D01*
X158189620Y-64390147D01*
X158177755Y-64382521D01*
X158174059Y-64379955D01*
X158091181Y-64317914D01*
X158084315Y-64312774D01*
X158084310Y-64312771D01*
X158084309Y-64312770D01*
X157985930Y-64259050D01*
X157982061Y-64256755D01*
X157959712Y-64242392D01*
X157935552Y-64231359D01*
X157931529Y-64229345D01*
X157833162Y-64175633D01*
X157728126Y-64136456D01*
X157723969Y-64134735D01*
X157699825Y-64123709D01*
X157699821Y-64123707D01*
X157699819Y-64123706D01*
X157699816Y-64123705D01*
X157674351Y-64116227D01*
X157670084Y-64114807D01*
X157565044Y-64075630D01*
X157565040Y-64075629D01*
X157455507Y-64051802D01*
X157451143Y-64050688D01*
X157445724Y-64049096D01*
X157425662Y-64043206D01*
X157399385Y-64039428D01*
X157394958Y-64038629D01*
X157285427Y-64014803D01*
X157173601Y-64006805D01*
X157169139Y-64006326D01*
X157158197Y-64004753D01*
X157142865Y-64002548D01*
X157142861Y-64002548D01*
X157116317Y-64002548D01*
X157111821Y-64002387D01*
X157000000Y-63994390D01*
X156888179Y-64002387D01*
X156883683Y-64002548D01*
X156857137Y-64002548D01*
X156830858Y-64006326D01*
X156826386Y-64006807D01*
X156714573Y-64014803D01*
X156605042Y-64038629D01*
X156600614Y-64039428D01*
X156574332Y-64043205D01*
X156548846Y-64050690D01*
X156544487Y-64051802D01*
X156434961Y-64075628D01*
X156329917Y-64114805D01*
X156325657Y-64116223D01*
X156305979Y-64122003D01*
X156300586Y-64123587D01*
X156300170Y-64123709D01*
X156276025Y-64134736D01*
X156271871Y-64136457D01*
X156166849Y-64175629D01*
X156166838Y-64175633D01*
X156068464Y-64229348D01*
X156064442Y-64231361D01*
X156040286Y-64242392D01*
X156017946Y-64256749D01*
X156014079Y-64259044D01*
X155915689Y-64312771D01*
X155915685Y-64312774D01*
X155825938Y-64379956D01*
X155822245Y-64382520D01*
X155806335Y-64392745D01*
X155799917Y-64396869D01*
X155784655Y-64410095D01*
X155779833Y-64414271D01*
X155776342Y-64417083D01*
X155686602Y-64484263D01*
X155607336Y-64563528D01*
X155604044Y-64566593D01*
X155583979Y-64583979D01*
X155566593Y-64604044D01*
X155563528Y-64607336D01*
X155484263Y-64686602D01*
X155417079Y-64776348D01*
X155414257Y-64779850D01*
X155396880Y-64799903D01*
X155382518Y-64822248D01*
X155379955Y-64825938D01*
X155312774Y-64915685D01*
X155312771Y-64915689D01*
X155259044Y-65014079D01*
X155256749Y-65017946D01*
X155242392Y-65040286D01*
X155231361Y-65064442D01*
X155229348Y-65068464D01*
X155175633Y-65166838D01*
X155175629Y-65166849D01*
X155136457Y-65271871D01*
X155134736Y-65276025D01*
X155123708Y-65300173D01*
X155116224Y-65325653D01*
X155114806Y-65329916D01*
X155075628Y-65434961D01*
X155051802Y-65544487D01*
X155050690Y-65548846D01*
X155043205Y-65574332D01*
X155039428Y-65600614D01*
X155038629Y-65605042D01*
X155014803Y-65714573D01*
X155006807Y-65826386D01*
X155006326Y-65830858D01*
X155002548Y-65857137D01*
X155002548Y-65883683D01*
X155002387Y-65888179D01*
X154994390Y-65999999D01*
X123500000Y-65999999D01*
X123500000Y-57505175D01*
X123520002Y-57437054D01*
X123573658Y-57390561D01*
X123643932Y-57380457D01*
X123708512Y-57409951D01*
X123736585Y-57444787D01*
X123812774Y-57584315D01*
X123963325Y-57785428D01*
X123984262Y-57813396D01*
X123984270Y-57813405D01*
X124186594Y-58015729D01*
X124186603Y-58015737D01*
X124186605Y-58015739D01*
X124415685Y-58187226D01*
X124415687Y-58187227D01*
X124415692Y-58187231D01*
X124666829Y-58324362D01*
X124666839Y-58324367D01*
X124934954Y-58424369D01*
X125214572Y-58485196D01*
X125500000Y-58505610D01*
X125785428Y-58485196D01*
X126065046Y-58424369D01*
X126333161Y-58324367D01*
X126363144Y-58307994D01*
X126584307Y-58187231D01*
X126584309Y-58187229D01*
X126584315Y-58187226D01*
X126813395Y-58015739D01*
X127015739Y-57813395D01*
X127187226Y-57584315D01*
X127187229Y-57584309D01*
X127187231Y-57584307D01*
X127194253Y-57571448D01*
X134499500Y-57571448D01*
X134505245Y-57651775D01*
X134514803Y-57785424D01*
X134575631Y-58065046D01*
X134675632Y-58333160D01*
X134675637Y-58333170D01*
X134812768Y-58584307D01*
X134812772Y-58584312D01*
X134984262Y-58813396D01*
X134984270Y-58813405D01*
X135186594Y-59015729D01*
X135186603Y-59015737D01*
X135186605Y-59015739D01*
X135415685Y-59187226D01*
X135415687Y-59187227D01*
X135415692Y-59187231D01*
X135666829Y-59324362D01*
X135666839Y-59324367D01*
X135934954Y-59424369D01*
X136214572Y-59485196D01*
X136500000Y-59505610D01*
X136785428Y-59485196D01*
X137065046Y-59424369D01*
X137333161Y-59324367D01*
X137363144Y-59307994D01*
X137584307Y-59187231D01*
X137584309Y-59187229D01*
X137584315Y-59187226D01*
X137813395Y-59015739D01*
X138015739Y-58813395D01*
X138187226Y-58584315D01*
X138187229Y-58584309D01*
X138187231Y-58584307D01*
X138324362Y-58333170D01*
X138324367Y-58333161D01*
X138424369Y-58065046D01*
X138485196Y-57785428D01*
X138500500Y-57571448D01*
X138500500Y-57506090D01*
X138520502Y-57437970D01*
X138574158Y-57391477D01*
X138644432Y-57381373D01*
X138709012Y-57410867D01*
X138737086Y-57445703D01*
X138812774Y-57584315D01*
X138963325Y-57785428D01*
X138984262Y-57813396D01*
X138984270Y-57813405D01*
X139186594Y-58015729D01*
X139186603Y-58015737D01*
X139186605Y-58015739D01*
X139415685Y-58187226D01*
X139415687Y-58187227D01*
X139415692Y-58187231D01*
X139666829Y-58324362D01*
X139666839Y-58324367D01*
X139934954Y-58424369D01*
X140214572Y-58485196D01*
X140500000Y-58505610D01*
X140785428Y-58485196D01*
X141065046Y-58424369D01*
X141333161Y-58324367D01*
X141363144Y-58307994D01*
X141584307Y-58187231D01*
X141584309Y-58187229D01*
X141584315Y-58187226D01*
X141813395Y-58015739D01*
X142015739Y-57813395D01*
X142187226Y-57584315D01*
X142187229Y-57584309D01*
X142187231Y-57584307D01*
X142194253Y-57571448D01*
X149499500Y-57571448D01*
X149505245Y-57651775D01*
X149514803Y-57785424D01*
X149575631Y-58065046D01*
X149675632Y-58333160D01*
X149675637Y-58333170D01*
X149812768Y-58584307D01*
X149812772Y-58584312D01*
X149984262Y-58813396D01*
X149984270Y-58813405D01*
X150186594Y-59015729D01*
X150186603Y-59015737D01*
X150186605Y-59015739D01*
X150415685Y-59187226D01*
X150415687Y-59187227D01*
X150415692Y-59187231D01*
X150666829Y-59324362D01*
X150666839Y-59324367D01*
X150934954Y-59424369D01*
X151214572Y-59485196D01*
X151500000Y-59505610D01*
X151785428Y-59485196D01*
X152065046Y-59424369D01*
X152333161Y-59324367D01*
X152363144Y-59307994D01*
X152584307Y-59187231D01*
X152584309Y-59187229D01*
X152584315Y-59187226D01*
X152813395Y-59015739D01*
X153015739Y-58813395D01*
X153187226Y-58584315D01*
X153187229Y-58584309D01*
X153187231Y-58584307D01*
X153324362Y-58333170D01*
X153324367Y-58333161D01*
X153424369Y-58065046D01*
X153485196Y-57785428D01*
X153500500Y-57571448D01*
X153500500Y-57506090D01*
X153520502Y-57437970D01*
X153574158Y-57391477D01*
X153644432Y-57381373D01*
X153709012Y-57410867D01*
X153737086Y-57445703D01*
X153812774Y-57584315D01*
X153963325Y-57785428D01*
X153984262Y-57813396D01*
X153984270Y-57813405D01*
X154186594Y-58015729D01*
X154186603Y-58015737D01*
X154186605Y-58015739D01*
X154415685Y-58187226D01*
X154415687Y-58187227D01*
X154415692Y-58187231D01*
X154666829Y-58324362D01*
X154666839Y-58324367D01*
X154934954Y-58424369D01*
X155214572Y-58485196D01*
X155500000Y-58505610D01*
X155785428Y-58485196D01*
X156065046Y-58424369D01*
X156333161Y-58324367D01*
X156363144Y-58307994D01*
X156584307Y-58187231D01*
X156584309Y-58187229D01*
X156584315Y-58187226D01*
X156813395Y-58015739D01*
X157015739Y-57813395D01*
X157187226Y-57584315D01*
X157187229Y-57584309D01*
X157187231Y-57584307D01*
X157194253Y-57571448D01*
X164499500Y-57571448D01*
X164505245Y-57651775D01*
X164514803Y-57785424D01*
X164575631Y-58065046D01*
X164675632Y-58333160D01*
X164675637Y-58333170D01*
X164812768Y-58584307D01*
X164812772Y-58584312D01*
X164984262Y-58813396D01*
X164984270Y-58813405D01*
X165186594Y-59015729D01*
X165186603Y-59015737D01*
X165186605Y-59015739D01*
X165415685Y-59187226D01*
X165415687Y-59187227D01*
X165415692Y-59187231D01*
X165666829Y-59324362D01*
X165666839Y-59324367D01*
X165934954Y-59424369D01*
X166214572Y-59485196D01*
X166500000Y-59505610D01*
X166785428Y-59485196D01*
X167065046Y-59424369D01*
X167333161Y-59324367D01*
X167363144Y-59307994D01*
X167584307Y-59187231D01*
X167584309Y-59187229D01*
X167584315Y-59187226D01*
X167813395Y-59015739D01*
X168015739Y-58813395D01*
X168187226Y-58584315D01*
X168187229Y-58584309D01*
X168187231Y-58584307D01*
X168324362Y-58333170D01*
X168324367Y-58333161D01*
X168424369Y-58065046D01*
X168485196Y-57785428D01*
X168500500Y-57571448D01*
X168500500Y-56428552D01*
X168485196Y-56214572D01*
X168424369Y-55934954D01*
X168324367Y-55666839D01*
X168298041Y-55618626D01*
X168187231Y-55415692D01*
X168187227Y-55415687D01*
X168036677Y-55214575D01*
X168015739Y-55186605D01*
X168015737Y-55186603D01*
X168015729Y-55186594D01*
X167813405Y-54984270D01*
X167813396Y-54984262D01*
X167747528Y-54934954D01*
X167584315Y-54812774D01*
X167584313Y-54812773D01*
X167584312Y-54812772D01*
X167584307Y-54812768D01*
X167333170Y-54675637D01*
X167333160Y-54675632D01*
X167065046Y-54575631D01*
X166785424Y-54514803D01*
X166500000Y-54494390D01*
X166214575Y-54514803D01*
X165934953Y-54575631D01*
X165666839Y-54675632D01*
X165666829Y-54675637D01*
X165415692Y-54812768D01*
X165415687Y-54812772D01*
X165186603Y-54984262D01*
X165186594Y-54984270D01*
X164984270Y-55186594D01*
X164984262Y-55186603D01*
X164812772Y-55415687D01*
X164812768Y-55415692D01*
X164675637Y-55666829D01*
X164675632Y-55666839D01*
X164575631Y-55934953D01*
X164514803Y-56214575D01*
X164504906Y-56352954D01*
X164499500Y-56428552D01*
X164499500Y-57571448D01*
X157194253Y-57571448D01*
X157324362Y-57333170D01*
X157324367Y-57333161D01*
X157424369Y-57065046D01*
X157485196Y-56785428D01*
X157500500Y-56571448D01*
X157500500Y-55428552D01*
X157485196Y-55214572D01*
X157424369Y-54934954D01*
X157324367Y-54666839D01*
X157299066Y-54620503D01*
X157187231Y-54415692D01*
X157187227Y-54415687D01*
X157187226Y-54415685D01*
X157015739Y-54186605D01*
X157015737Y-54186603D01*
X157015729Y-54186594D01*
X156813405Y-53984270D01*
X156813396Y-53984262D01*
X156584312Y-53812772D01*
X156584307Y-53812768D01*
X156333170Y-53675637D01*
X156333160Y-53675632D01*
X156065046Y-53575631D01*
X155785424Y-53514803D01*
X155500000Y-53494390D01*
X155214575Y-53514803D01*
X154934953Y-53575631D01*
X154666839Y-53675632D01*
X154666829Y-53675637D01*
X154415692Y-53812768D01*
X154415687Y-53812772D01*
X154186603Y-53984262D01*
X154186594Y-53984270D01*
X153984270Y-54186594D01*
X153984262Y-54186603D01*
X153812772Y-54415687D01*
X153812768Y-54415692D01*
X153675637Y-54666829D01*
X153675632Y-54666839D01*
X153575631Y-54934953D01*
X153514803Y-55214575D01*
X153504906Y-55352954D01*
X153500421Y-55415685D01*
X153499500Y-55428558D01*
X153499500Y-55493908D01*
X153479498Y-55562029D01*
X153425842Y-55608522D01*
X153355568Y-55618626D01*
X153290988Y-55589132D01*
X153262913Y-55554294D01*
X153187227Y-55415687D01*
X153036677Y-55214575D01*
X153015739Y-55186605D01*
X153015737Y-55186603D01*
X153015729Y-55186594D01*
X152813405Y-54984270D01*
X152813396Y-54984262D01*
X152747528Y-54934954D01*
X152584315Y-54812774D01*
X152584313Y-54812773D01*
X152584312Y-54812772D01*
X152584307Y-54812768D01*
X152333170Y-54675637D01*
X152333160Y-54675632D01*
X152065046Y-54575631D01*
X151785424Y-54514803D01*
X151500000Y-54494390D01*
X151214575Y-54514803D01*
X150934953Y-54575631D01*
X150666839Y-54675632D01*
X150666829Y-54675637D01*
X150415692Y-54812768D01*
X150415687Y-54812772D01*
X150186603Y-54984262D01*
X150186594Y-54984270D01*
X149984270Y-55186594D01*
X149984262Y-55186603D01*
X149812772Y-55415687D01*
X149812768Y-55415692D01*
X149675637Y-55666829D01*
X149675632Y-55666839D01*
X149575631Y-55934953D01*
X149514803Y-56214575D01*
X149504906Y-56352954D01*
X149499500Y-56428552D01*
X149499500Y-57571448D01*
X142194253Y-57571448D01*
X142324362Y-57333170D01*
X142324367Y-57333161D01*
X142424369Y-57065046D01*
X142485196Y-56785428D01*
X142500500Y-56571448D01*
X142500500Y-55428552D01*
X142485196Y-55214572D01*
X142424369Y-54934954D01*
X142324367Y-54666839D01*
X142299066Y-54620503D01*
X142187231Y-54415692D01*
X142187227Y-54415687D01*
X142187226Y-54415685D01*
X142015739Y-54186605D01*
X142015737Y-54186603D01*
X142015729Y-54186594D01*
X141813405Y-53984270D01*
X141813396Y-53984262D01*
X141584312Y-53812772D01*
X141584307Y-53812768D01*
X141333170Y-53675637D01*
X141333160Y-53675632D01*
X141065046Y-53575631D01*
X140785424Y-53514803D01*
X140500000Y-53494390D01*
X140214575Y-53514803D01*
X139934953Y-53575631D01*
X139666839Y-53675632D01*
X139666829Y-53675637D01*
X139415692Y-53812768D01*
X139415687Y-53812772D01*
X139186603Y-53984262D01*
X139186594Y-53984270D01*
X138984270Y-54186594D01*
X138984262Y-54186603D01*
X138812772Y-54415687D01*
X138812768Y-54415692D01*
X138675637Y-54666829D01*
X138675632Y-54666839D01*
X138575631Y-54934953D01*
X138514803Y-55214575D01*
X138504906Y-55352954D01*
X138500421Y-55415685D01*
X138499500Y-55428558D01*
X138499500Y-55493908D01*
X138479498Y-55562029D01*
X138425842Y-55608522D01*
X138355568Y-55618626D01*
X138290988Y-55589132D01*
X138262913Y-55554294D01*
X138187227Y-55415687D01*
X138036677Y-55214575D01*
X138015739Y-55186605D01*
X138015737Y-55186603D01*
X138015729Y-55186594D01*
X137813405Y-54984270D01*
X137813396Y-54984262D01*
X137747528Y-54934954D01*
X137584315Y-54812774D01*
X137584313Y-54812773D01*
X137584312Y-54812772D01*
X137584307Y-54812768D01*
X137333170Y-54675637D01*
X137333160Y-54675632D01*
X137065046Y-54575631D01*
X136785424Y-54514803D01*
X136500000Y-54494390D01*
X136214575Y-54514803D01*
X135934953Y-54575631D01*
X135666839Y-54675632D01*
X135666829Y-54675637D01*
X135415692Y-54812768D01*
X135415687Y-54812772D01*
X135186603Y-54984262D01*
X135186594Y-54984270D01*
X134984270Y-55186594D01*
X134984262Y-55186603D01*
X134812772Y-55415687D01*
X134812768Y-55415692D01*
X134675637Y-55666829D01*
X134675632Y-55666839D01*
X134575631Y-55934953D01*
X134514803Y-56214575D01*
X134504906Y-56352954D01*
X134499500Y-56428552D01*
X134499500Y-57571448D01*
X127194253Y-57571448D01*
X127324362Y-57333170D01*
X127324367Y-57333161D01*
X127424369Y-57065046D01*
X127485196Y-56785428D01*
X127500500Y-56571448D01*
X127500500Y-55428552D01*
X127485196Y-55214572D01*
X127424369Y-54934954D01*
X127324367Y-54666839D01*
X127299066Y-54620503D01*
X127187231Y-54415692D01*
X127187227Y-54415687D01*
X127187226Y-54415685D01*
X127015739Y-54186605D01*
X127015737Y-54186603D01*
X127015729Y-54186594D01*
X126813405Y-53984270D01*
X126813396Y-53984262D01*
X126584312Y-53812772D01*
X126584307Y-53812768D01*
X126333170Y-53675637D01*
X126333160Y-53675632D01*
X126065046Y-53575631D01*
X125785424Y-53514803D01*
X125500000Y-53494390D01*
X125214575Y-53514803D01*
X124934953Y-53575631D01*
X124666839Y-53675632D01*
X124666829Y-53675637D01*
X124415692Y-53812768D01*
X124415687Y-53812772D01*
X124186603Y-53984262D01*
X124186594Y-53984270D01*
X123984270Y-54186594D01*
X123984262Y-54186603D01*
X123812772Y-54415687D01*
X123736587Y-54555210D01*
X123686385Y-54605412D01*
X123617011Y-54620503D01*
X123550491Y-54595692D01*
X123507944Y-54538856D01*
X123500000Y-54494824D01*
X123500000Y-49626500D01*
X123520002Y-49558379D01*
X123573658Y-49511886D01*
X123626000Y-49500500D01*
X167947602Y-49500500D01*
X168015723Y-49520502D01*
G37*
%TD.AperFunction*%
%TD*%
M02*
