M48
; DRILL file {KiCad 7.0.7} date Sat Sep 16 18:41:48 2023
; FORMAT={-:-/ absolute / inch / decimal}
; #@! TF.CreationDate,2023-09-16T18:41:48+02:00
; #@! TF.GenerationSoftware,Kicad,Pcbnew,7.0.7
; #@! TF.FileFunction,Plated,1,2,PTH
FMAT,2
INCH
; #@! TA.AperFunction,Plated,PTH,ComponentDrill
T1C0.0295
; #@! TA.AperFunction,Plated,PTH,ComponentDrill
T2C0.0472
; #@! TA.AperFunction,Plated,PTH,ComponentDrill
T3C0.0669
; #@! TA.AperFunction,Plated,PTH,ComponentDrill
T4C0.0701
%
G90
G05
T3
X2.815Y-2.6197
X2.815Y-2.7756
X4.5669Y-2.6197
X4.5669Y-2.7756
T4
X5.2559Y-2.7559
X5.4559Y-2.7559
X5.6559Y-2.7559
X5.8559Y-2.7559
T1
G00X2.1358Y-2.1545
M15
G01X2.1358Y-2.2549
M16
G05
G00X2.1358Y-2.7667
M15
G01X2.1358Y-2.6663
M16
G05
G00X2.3337Y-2.3524
M15
G01X2.2333Y-2.3524
M16
G05
G00X2.2333Y-2.5689
M15
G01X2.3337Y-2.5689
M16
G05
G00X2.4311Y-2.1545
M15
G01X2.4311Y-2.2549
M16
G05
G00X2.4311Y-2.7667
M15
G01X2.4311Y-2.6663
M16
G05
G00X3.2382Y-2.1545
M15
G01X3.2382Y-2.2549
M16
G05
G00X3.2382Y-2.7667
M15
G01X3.2382Y-2.6663
M16
G05
G00X3.436Y-2.3524
M15
G01X3.3356Y-2.3524
M16
G05
G00X3.3356Y-2.5689
M15
G01X3.436Y-2.5689
M16
G05
G00X3.5335Y-2.1545
M15
G01X3.5335Y-2.2549
M16
G05
G00X3.5335Y-2.7667
M15
G01X3.5335Y-2.6663
M16
G05
G00X3.7894Y-2.1545
M15
G01X3.7894Y-2.2549
M16
G05
G00X3.7894Y-2.7667
M15
G01X3.7894Y-2.6663
M16
G05
G00X3.9872Y-2.3524
M15
G01X3.8868Y-2.3524
M16
G05
G00X3.8868Y-2.5689
M15
G01X3.9872Y-2.5689
M16
G05
G00X4.0846Y-2.1545
M15
G01X4.0846Y-2.2549
M16
G05
G00X4.0846Y-2.7667
M15
G01X4.0846Y-2.6663
M16
G05
G00X4.4193Y-2.1545
M15
G01X4.4193Y-2.2549
M16
G05
G00X4.6171Y-2.3524
M15
G01X4.5167Y-2.3524
M16
G05
G00X4.7146Y-2.1545
M15
G01X4.7146Y-2.2549
M16
G05
T2
G00X4.9409Y-2.2244
M15
G01X4.9409Y-2.185
M16
G05
G00X5.1772Y-2.3622
M15
G01X5.1772Y-2.3228
M16
G05
G00X5.315Y-2.126
M15
G01X5.315Y-2.0866
M16
G05
G00X5.374Y-2.2638
M15
G01X5.374Y-2.2244
M16
G05
G00X5.5315Y-2.2244
M15
G01X5.5315Y-2.185
M16
G05
G00X5.7677Y-2.3622
M15
G01X5.7677Y-2.3228
M16
G05
G00X5.9055Y-2.126
M15
G01X5.9055Y-2.0866
M16
G05
G00X5.9646Y-2.2638
M15
G01X5.9646Y-2.2244
M16
G05
G00X6.122Y-2.2244
M15
G01X6.122Y-2.185
M16
G05
G00X6.3583Y-2.3622
M15
G01X6.3583Y-2.3228
M16
G05
G00X6.4961Y-2.126
M15
G01X6.4961Y-2.0866
M16
G05
G00X6.5551Y-2.2638
M15
G01X6.5551Y-2.2244
M16
G05
T0
M30
