%TF.GenerationSoftware,KiCad,Pcbnew,7.0.7*%
%TF.CreationDate,2023-09-16T18:41:48+02:00*%
%TF.ProjectId,dew_connector_pcb,6465775f-636f-46e6-9e65-63746f725f70,rev?*%
%TF.SameCoordinates,Original*%
%TF.FileFunction,Soldermask,Top*%
%TF.FilePolarity,Negative*%
%FSLAX46Y46*%
G04 Gerber Fmt 4.6, Leading zero omitted, Abs format (unit mm)*
G04 Created by KiCad (PCBNEW 7.0.7) date 2023-09-16 18:41:48*
%MOMM*%
%LPD*%
G01*
G04 APERTURE LIST*
G04 Aperture macros list*
%AMRoundRect*
0 Rectangle with rounded corners*
0 $1 Rounding radius*
0 $2 $3 $4 $5 $6 $7 $8 $9 X,Y pos of 4 corners*
0 Add a 4 corners polygon primitive as box body*
4,1,4,$2,$3,$4,$5,$6,$7,$8,$9,$2,$3,0*
0 Add four circle primitives for the rounded corners*
1,1,$1+$1,$2,$3*
1,1,$1+$1,$4,$5*
1,1,$1+$1,$6,$7*
1,1,$1+$1,$8,$9*
0 Add four rect primitives between the rounded corners*
20,1,$1+$1,$2,$3,$4,$5,0*
20,1,$1+$1,$4,$5,$6,$7,0*
20,1,$1+$1,$6,$7,$8,$9,0*
20,1,$1+$1,$8,$9,$2,$3,0*%
G04 Aperture macros list end*
%ADD10O,2.000000X5.000000*%
%ADD11O,5.000000X2.000000*%
%ADD12O,2.500000X3.500000*%
%ADD13RoundRect,0.250001X1.099999X-1.099999X1.099999X1.099999X-1.099999X1.099999X-1.099999X-1.099999X0*%
%ADD14C,2.700000*%
%ADD15R,2.780000X2.780000*%
%ADD16C,2.780000*%
G04 APERTURE END LIST*
D10*
%TO.C,J23*%
X103750000Y-69000000D03*
D11*
X100000000Y-65250000D03*
D10*
X96250000Y-69000000D03*
%TD*%
%TO.C,J11*%
X61750000Y-69000000D03*
D11*
X58000000Y-65250000D03*
D10*
X54250000Y-69000000D03*
%TD*%
%TO.C,J30*%
X112250000Y-56000000D03*
D11*
X116000000Y-59750000D03*
D10*
X119750000Y-56000000D03*
%TD*%
%TO.C,J20*%
X82250000Y-56000000D03*
D11*
X86000000Y-59750000D03*
D10*
X89750000Y-56000000D03*
%TD*%
%TO.C,J21*%
X89750000Y-69000000D03*
D11*
X86000000Y-65250000D03*
D10*
X82250000Y-69000000D03*
%TD*%
%TO.C,J22*%
X96250000Y-56000000D03*
D11*
X100000000Y-59750000D03*
D10*
X103750000Y-56000000D03*
%TD*%
%TO.C,J10*%
X54250000Y-56000000D03*
D11*
X58000000Y-59750000D03*
D10*
X61750000Y-56000000D03*
%TD*%
D12*
%TO.C,J43*%
X136500000Y-57000000D03*
X125500000Y-56000000D03*
X135000000Y-53500000D03*
X131500000Y-59500000D03*
%TD*%
D13*
%TO.C,J12*%
X71500000Y-70500000D03*
D14*
X71500000Y-66540000D03*
%TD*%
D13*
%TO.C,J31*%
X116000000Y-70500000D03*
D14*
X116000000Y-66540000D03*
%TD*%
D15*
%TO.C,J40*%
X148740000Y-70000000D03*
D16*
X143660000Y-70000000D03*
X138580000Y-70000000D03*
X133500000Y-70000000D03*
%TD*%
D12*
%TO.C,J41*%
X166500000Y-57000000D03*
X155500000Y-56000000D03*
X165000000Y-53500000D03*
X161500000Y-59500000D03*
%TD*%
%TO.C,J42*%
X151500000Y-57000000D03*
X140500000Y-56000000D03*
X150000000Y-53500000D03*
X146500000Y-59500000D03*
%TD*%
M02*
