%TF.GenerationSoftware,KiCad,Pcbnew,7.0.7*%
%TF.CreationDate,2023-09-16T18:41:48+02:00*%
%TF.ProjectId,dew_connector_pcb,6465775f-636f-46e6-9e65-63746f725f70,rev?*%
%TF.SameCoordinates,Original*%
%TF.FileFunction,Legend,Top*%
%TF.FilePolarity,Positive*%
%FSLAX46Y46*%
G04 Gerber Fmt 4.6, Leading zero omitted, Abs format (unit mm)*
G04 Created by KiCad (PCBNEW 7.0.7) date 2023-09-16 18:41:48*
%MOMM*%
%LPD*%
G01*
G04 APERTURE LIST*
G04 Aperture macros list*
%AMRoundRect*
0 Rectangle with rounded corners*
0 $1 Rounding radius*
0 $2 $3 $4 $5 $6 $7 $8 $9 X,Y pos of 4 corners*
0 Add a 4 corners polygon primitive as box body*
4,1,4,$2,$3,$4,$5,$6,$7,$8,$9,$2,$3,0*
0 Add four circle primitives for the rounded corners*
1,1,$1+$1,$2,$3*
1,1,$1+$1,$4,$5*
1,1,$1+$1,$6,$7*
1,1,$1+$1,$8,$9*
0 Add four rect primitives between the rounded corners*
20,1,$1+$1,$2,$3,$4,$5,0*
20,1,$1+$1,$4,$5,$6,$7,0*
20,1,$1+$1,$6,$7,$8,$9,0*
20,1,$1+$1,$8,$9,$2,$3,0*%
G04 Aperture macros list end*
%ADD10C,0.150000*%
%ADD11C,0.300000*%
%ADD12C,0.187500*%
%ADD13C,0.120000*%
%ADD14O,2.000000X5.000000*%
%ADD15O,5.000000X2.000000*%
%ADD16O,2.500000X3.500000*%
%ADD17RoundRect,0.250001X1.099999X-1.099999X1.099999X1.099999X-1.099999X1.099999X-1.099999X-1.099999X0*%
%ADD18C,2.700000*%
%ADD19R,2.780000X2.780000*%
%ADD20C,2.780000*%
G04 APERTURE END LIST*
D10*
X124000000Y-51000000D02*
X138000000Y-51000000D01*
X138000000Y-63000000D01*
X124000000Y-63000000D01*
X124000000Y-51000000D01*
X139000000Y-51000000D02*
X153000000Y-51000000D01*
X153000000Y-63000000D01*
X139000000Y-63000000D01*
X139000000Y-51000000D01*
X154000000Y-51000000D02*
X168000000Y-51000000D01*
X168000000Y-63000000D01*
X154000000Y-63000000D01*
X154000000Y-51000000D01*
D11*
X65785715Y-52678328D02*
X64928572Y-52678328D01*
X65357143Y-52678328D02*
X65357143Y-51178328D01*
X65357143Y-51178328D02*
X65214286Y-51392614D01*
X65214286Y-51392614D02*
X65071429Y-51535471D01*
X65071429Y-51535471D02*
X64928572Y-51606900D01*
X66500000Y-52678328D02*
X66785714Y-52678328D01*
X66785714Y-52678328D02*
X66928571Y-52606900D01*
X66928571Y-52606900D02*
X67000000Y-52535471D01*
X67000000Y-52535471D02*
X67142857Y-52321185D01*
X67142857Y-52321185D02*
X67214286Y-52035471D01*
X67214286Y-52035471D02*
X67214286Y-51464042D01*
X67214286Y-51464042D02*
X67142857Y-51321185D01*
X67142857Y-51321185D02*
X67071429Y-51249757D01*
X67071429Y-51249757D02*
X66928571Y-51178328D01*
X66928571Y-51178328D02*
X66642857Y-51178328D01*
X66642857Y-51178328D02*
X66500000Y-51249757D01*
X66500000Y-51249757D02*
X66428571Y-51321185D01*
X66428571Y-51321185D02*
X66357143Y-51464042D01*
X66357143Y-51464042D02*
X66357143Y-51821185D01*
X66357143Y-51821185D02*
X66428571Y-51964042D01*
X66428571Y-51964042D02*
X66500000Y-52035471D01*
X66500000Y-52035471D02*
X66642857Y-52106900D01*
X66642857Y-52106900D02*
X66928571Y-52106900D01*
X66928571Y-52106900D02*
X67071429Y-52035471D01*
X67071429Y-52035471D02*
X67142857Y-51964042D01*
X67142857Y-51964042D02*
X67214286Y-51821185D01*
X67642857Y-51178328D02*
X68142857Y-52678328D01*
X68142857Y-52678328D02*
X68642857Y-51178328D01*
X70214285Y-52249757D02*
X70928571Y-52249757D01*
X70071428Y-52678328D02*
X70571428Y-51178328D01*
X70571428Y-51178328D02*
X71071428Y-52678328D01*
X72428570Y-52678328D02*
X71928570Y-51964042D01*
X71571427Y-52678328D02*
X71571427Y-51178328D01*
X71571427Y-51178328D02*
X72142856Y-51178328D01*
X72142856Y-51178328D02*
X72285713Y-51249757D01*
X72285713Y-51249757D02*
X72357142Y-51321185D01*
X72357142Y-51321185D02*
X72428570Y-51464042D01*
X72428570Y-51464042D02*
X72428570Y-51678328D01*
X72428570Y-51678328D02*
X72357142Y-51821185D01*
X72357142Y-51821185D02*
X72285713Y-51892614D01*
X72285713Y-51892614D02*
X72142856Y-51964042D01*
X72142856Y-51964042D02*
X71571427Y-51964042D01*
X73071427Y-51892614D02*
X73571427Y-51892614D01*
X73785713Y-52678328D02*
X73071427Y-52678328D01*
X73071427Y-52678328D02*
X73071427Y-51178328D01*
X73071427Y-51178328D02*
X73785713Y-51178328D01*
X74357142Y-52249757D02*
X75071428Y-52249757D01*
X74214285Y-52678328D02*
X74714285Y-51178328D01*
X74714285Y-51178328D02*
X75214285Y-52678328D01*
X88785715Y-63678328D02*
X87928572Y-63678328D01*
X88357143Y-63678328D02*
X88357143Y-62178328D01*
X88357143Y-62178328D02*
X88214286Y-62392614D01*
X88214286Y-62392614D02*
X88071429Y-62535471D01*
X88071429Y-62535471D02*
X87928572Y-62606900D01*
X89357143Y-62321185D02*
X89428571Y-62249757D01*
X89428571Y-62249757D02*
X89571429Y-62178328D01*
X89571429Y-62178328D02*
X89928571Y-62178328D01*
X89928571Y-62178328D02*
X90071429Y-62249757D01*
X90071429Y-62249757D02*
X90142857Y-62321185D01*
X90142857Y-62321185D02*
X90214286Y-62464042D01*
X90214286Y-62464042D02*
X90214286Y-62606900D01*
X90214286Y-62606900D02*
X90142857Y-62821185D01*
X90142857Y-62821185D02*
X89285714Y-63678328D01*
X89285714Y-63678328D02*
X90214286Y-63678328D01*
X90642857Y-62178328D02*
X91142857Y-63678328D01*
X91142857Y-63678328D02*
X91642857Y-62178328D01*
X93214285Y-63249757D02*
X93928571Y-63249757D01*
X93071428Y-63678328D02*
X93571428Y-62178328D01*
X93571428Y-62178328D02*
X94071428Y-63678328D01*
X95428570Y-63678328D02*
X94928570Y-62964042D01*
X94571427Y-63678328D02*
X94571427Y-62178328D01*
X94571427Y-62178328D02*
X95142856Y-62178328D01*
X95142856Y-62178328D02*
X95285713Y-62249757D01*
X95285713Y-62249757D02*
X95357142Y-62321185D01*
X95357142Y-62321185D02*
X95428570Y-62464042D01*
X95428570Y-62464042D02*
X95428570Y-62678328D01*
X95428570Y-62678328D02*
X95357142Y-62821185D01*
X95357142Y-62821185D02*
X95285713Y-62892614D01*
X95285713Y-62892614D02*
X95142856Y-62964042D01*
X95142856Y-62964042D02*
X94571427Y-62964042D01*
X96071427Y-62892614D02*
X96571427Y-62892614D01*
X96785713Y-63678328D02*
X96071427Y-63678328D01*
X96071427Y-63678328D02*
X96071427Y-62178328D01*
X96071427Y-62178328D02*
X96785713Y-62178328D01*
X97357142Y-63249757D02*
X98071428Y-63249757D01*
X97214285Y-63678328D02*
X97714285Y-62178328D01*
X97714285Y-62178328D02*
X98214285Y-63678328D01*
D12*
X68321430Y-55162035D02*
X68285716Y-55197750D01*
X68285716Y-55197750D02*
X68178573Y-55233464D01*
X68178573Y-55233464D02*
X68107145Y-55233464D01*
X68107145Y-55233464D02*
X68000002Y-55197750D01*
X68000002Y-55197750D02*
X67928573Y-55126321D01*
X67928573Y-55126321D02*
X67892859Y-55054892D01*
X67892859Y-55054892D02*
X67857145Y-54912035D01*
X67857145Y-54912035D02*
X67857145Y-54804892D01*
X67857145Y-54804892D02*
X67892859Y-54662035D01*
X67892859Y-54662035D02*
X67928573Y-54590607D01*
X67928573Y-54590607D02*
X68000002Y-54519178D01*
X68000002Y-54519178D02*
X68107145Y-54483464D01*
X68107145Y-54483464D02*
X68178573Y-54483464D01*
X68178573Y-54483464D02*
X68285716Y-54519178D01*
X68285716Y-54519178D02*
X68321430Y-54554892D01*
X68750002Y-55233464D02*
X68678573Y-55197750D01*
X68678573Y-55197750D02*
X68642859Y-55162035D01*
X68642859Y-55162035D02*
X68607145Y-55090607D01*
X68607145Y-55090607D02*
X68607145Y-54876321D01*
X68607145Y-54876321D02*
X68642859Y-54804892D01*
X68642859Y-54804892D02*
X68678573Y-54769178D01*
X68678573Y-54769178D02*
X68750002Y-54733464D01*
X68750002Y-54733464D02*
X68857145Y-54733464D01*
X68857145Y-54733464D02*
X68928573Y-54769178D01*
X68928573Y-54769178D02*
X68964288Y-54804892D01*
X68964288Y-54804892D02*
X69000002Y-54876321D01*
X69000002Y-54876321D02*
X69000002Y-55090607D01*
X69000002Y-55090607D02*
X68964288Y-55162035D01*
X68964288Y-55162035D02*
X68928573Y-55197750D01*
X68928573Y-55197750D02*
X68857145Y-55233464D01*
X68857145Y-55233464D02*
X68750002Y-55233464D01*
X69321430Y-54733464D02*
X69321430Y-55233464D01*
X69321430Y-54804892D02*
X69357144Y-54769178D01*
X69357144Y-54769178D02*
X69428573Y-54733464D01*
X69428573Y-54733464D02*
X69535716Y-54733464D01*
X69535716Y-54733464D02*
X69607144Y-54769178D01*
X69607144Y-54769178D02*
X69642859Y-54840607D01*
X69642859Y-54840607D02*
X69642859Y-55233464D01*
X70000001Y-54733464D02*
X70000001Y-55233464D01*
X70000001Y-54804892D02*
X70035715Y-54769178D01*
X70035715Y-54769178D02*
X70107144Y-54733464D01*
X70107144Y-54733464D02*
X70214287Y-54733464D01*
X70214287Y-54733464D02*
X70285715Y-54769178D01*
X70285715Y-54769178D02*
X70321430Y-54840607D01*
X70321430Y-54840607D02*
X70321430Y-55233464D01*
X70964286Y-55197750D02*
X70892858Y-55233464D01*
X70892858Y-55233464D02*
X70750001Y-55233464D01*
X70750001Y-55233464D02*
X70678572Y-55197750D01*
X70678572Y-55197750D02*
X70642858Y-55126321D01*
X70642858Y-55126321D02*
X70642858Y-54840607D01*
X70642858Y-54840607D02*
X70678572Y-54769178D01*
X70678572Y-54769178D02*
X70750001Y-54733464D01*
X70750001Y-54733464D02*
X70892858Y-54733464D01*
X70892858Y-54733464D02*
X70964286Y-54769178D01*
X70964286Y-54769178D02*
X71000001Y-54840607D01*
X71000001Y-54840607D02*
X71000001Y-54912035D01*
X71000001Y-54912035D02*
X70642858Y-54983464D01*
X71642858Y-55197750D02*
X71571429Y-55233464D01*
X71571429Y-55233464D02*
X71428572Y-55233464D01*
X71428572Y-55233464D02*
X71357143Y-55197750D01*
X71357143Y-55197750D02*
X71321429Y-55162035D01*
X71321429Y-55162035D02*
X71285715Y-55090607D01*
X71285715Y-55090607D02*
X71285715Y-54876321D01*
X71285715Y-54876321D02*
X71321429Y-54804892D01*
X71321429Y-54804892D02*
X71357143Y-54769178D01*
X71357143Y-54769178D02*
X71428572Y-54733464D01*
X71428572Y-54733464D02*
X71571429Y-54733464D01*
X71571429Y-54733464D02*
X71642858Y-54769178D01*
X71857143Y-54733464D02*
X72142857Y-54733464D01*
X71964286Y-54483464D02*
X71964286Y-55126321D01*
X71964286Y-55126321D02*
X72000000Y-55197750D01*
X72000000Y-55197750D02*
X72071429Y-55233464D01*
X72071429Y-55233464D02*
X72142857Y-55233464D01*
X72500000Y-55233464D02*
X72428571Y-55197750D01*
X72428571Y-55197750D02*
X72392857Y-55162035D01*
X72392857Y-55162035D02*
X72357143Y-55090607D01*
X72357143Y-55090607D02*
X72357143Y-54876321D01*
X72357143Y-54876321D02*
X72392857Y-54804892D01*
X72392857Y-54804892D02*
X72428571Y-54769178D01*
X72428571Y-54769178D02*
X72500000Y-54733464D01*
X72500000Y-54733464D02*
X72607143Y-54733464D01*
X72607143Y-54733464D02*
X72678571Y-54769178D01*
X72678571Y-54769178D02*
X72714286Y-54804892D01*
X72714286Y-54804892D02*
X72750000Y-54876321D01*
X72750000Y-54876321D02*
X72750000Y-55090607D01*
X72750000Y-55090607D02*
X72714286Y-55162035D01*
X72714286Y-55162035D02*
X72678571Y-55197750D01*
X72678571Y-55197750D02*
X72607143Y-55233464D01*
X72607143Y-55233464D02*
X72500000Y-55233464D01*
X73071428Y-55233464D02*
X73071428Y-54733464D01*
X73071428Y-54876321D02*
X73107142Y-54804892D01*
X73107142Y-54804892D02*
X73142857Y-54769178D01*
X73142857Y-54769178D02*
X73214285Y-54733464D01*
X73214285Y-54733464D02*
X73285714Y-54733464D01*
X73535714Y-54947750D02*
X74107143Y-54947750D01*
X74464285Y-54733464D02*
X74464285Y-55483464D01*
X74464285Y-54769178D02*
X74535714Y-54733464D01*
X74535714Y-54733464D02*
X74678571Y-54733464D01*
X74678571Y-54733464D02*
X74749999Y-54769178D01*
X74749999Y-54769178D02*
X74785714Y-54804892D01*
X74785714Y-54804892D02*
X74821428Y-54876321D01*
X74821428Y-54876321D02*
X74821428Y-55090607D01*
X74821428Y-55090607D02*
X74785714Y-55162035D01*
X74785714Y-55162035D02*
X74749999Y-55197750D01*
X74749999Y-55197750D02*
X74678571Y-55233464D01*
X74678571Y-55233464D02*
X74535714Y-55233464D01*
X74535714Y-55233464D02*
X74464285Y-55197750D01*
X75464285Y-55197750D02*
X75392856Y-55233464D01*
X75392856Y-55233464D02*
X75249999Y-55233464D01*
X75249999Y-55233464D02*
X75178570Y-55197750D01*
X75178570Y-55197750D02*
X75142856Y-55162035D01*
X75142856Y-55162035D02*
X75107142Y-55090607D01*
X75107142Y-55090607D02*
X75107142Y-54876321D01*
X75107142Y-54876321D02*
X75142856Y-54804892D01*
X75142856Y-54804892D02*
X75178570Y-54769178D01*
X75178570Y-54769178D02*
X75249999Y-54733464D01*
X75249999Y-54733464D02*
X75392856Y-54733464D01*
X75392856Y-54733464D02*
X75464285Y-54769178D01*
X75785713Y-55233464D02*
X75785713Y-54483464D01*
X75785713Y-54769178D02*
X75857142Y-54733464D01*
X75857142Y-54733464D02*
X75999999Y-54733464D01*
X75999999Y-54733464D02*
X76071427Y-54769178D01*
X76071427Y-54769178D02*
X76107142Y-54804892D01*
X76107142Y-54804892D02*
X76142856Y-54876321D01*
X76142856Y-54876321D02*
X76142856Y-55090607D01*
X76142856Y-55090607D02*
X76107142Y-55162035D01*
X76107142Y-55162035D02*
X76071427Y-55197750D01*
X76071427Y-55197750D02*
X75999999Y-55233464D01*
X75999999Y-55233464D02*
X75857142Y-55233464D01*
X75857142Y-55233464D02*
X75785713Y-55197750D01*
X68749999Y-56440964D02*
X68499999Y-56083821D01*
X68321428Y-56440964D02*
X68321428Y-55690964D01*
X68321428Y-55690964D02*
X68607142Y-55690964D01*
X68607142Y-55690964D02*
X68678571Y-55726678D01*
X68678571Y-55726678D02*
X68714285Y-55762392D01*
X68714285Y-55762392D02*
X68749999Y-55833821D01*
X68749999Y-55833821D02*
X68749999Y-55940964D01*
X68749999Y-55940964D02*
X68714285Y-56012392D01*
X68714285Y-56012392D02*
X68678571Y-56048107D01*
X68678571Y-56048107D02*
X68607142Y-56083821D01*
X68607142Y-56083821D02*
X68321428Y-56083821D01*
X69357142Y-56405250D02*
X69285714Y-56440964D01*
X69285714Y-56440964D02*
X69142857Y-56440964D01*
X69142857Y-56440964D02*
X69071428Y-56405250D01*
X69071428Y-56405250D02*
X69035714Y-56333821D01*
X69035714Y-56333821D02*
X69035714Y-56048107D01*
X69035714Y-56048107D02*
X69071428Y-55976678D01*
X69071428Y-55976678D02*
X69142857Y-55940964D01*
X69142857Y-55940964D02*
X69285714Y-55940964D01*
X69285714Y-55940964D02*
X69357142Y-55976678D01*
X69357142Y-55976678D02*
X69392857Y-56048107D01*
X69392857Y-56048107D02*
X69392857Y-56119535D01*
X69392857Y-56119535D02*
X69035714Y-56190964D01*
X69642856Y-55940964D02*
X69821428Y-56440964D01*
X69821428Y-56440964D02*
X69999999Y-55940964D01*
X70285714Y-56440964D02*
X70285714Y-55940964D01*
X70285714Y-55690964D02*
X70250000Y-55726678D01*
X70250000Y-55726678D02*
X70285714Y-55762392D01*
X70285714Y-55762392D02*
X70321428Y-55726678D01*
X70321428Y-55726678D02*
X70285714Y-55690964D01*
X70285714Y-55690964D02*
X70285714Y-55762392D01*
X70607143Y-56405250D02*
X70678571Y-56440964D01*
X70678571Y-56440964D02*
X70821428Y-56440964D01*
X70821428Y-56440964D02*
X70892857Y-56405250D01*
X70892857Y-56405250D02*
X70928571Y-56333821D01*
X70928571Y-56333821D02*
X70928571Y-56298107D01*
X70928571Y-56298107D02*
X70892857Y-56226678D01*
X70892857Y-56226678D02*
X70821428Y-56190964D01*
X70821428Y-56190964D02*
X70714286Y-56190964D01*
X70714286Y-56190964D02*
X70642857Y-56155250D01*
X70642857Y-56155250D02*
X70607143Y-56083821D01*
X70607143Y-56083821D02*
X70607143Y-56048107D01*
X70607143Y-56048107D02*
X70642857Y-55976678D01*
X70642857Y-55976678D02*
X70714286Y-55940964D01*
X70714286Y-55940964D02*
X70821428Y-55940964D01*
X70821428Y-55940964D02*
X70892857Y-55976678D01*
X71250000Y-56440964D02*
X71250000Y-55940964D01*
X71250000Y-55690964D02*
X71214286Y-55726678D01*
X71214286Y-55726678D02*
X71250000Y-55762392D01*
X71250000Y-55762392D02*
X71285714Y-55726678D01*
X71285714Y-55726678D02*
X71250000Y-55690964D01*
X71250000Y-55690964D02*
X71250000Y-55762392D01*
X71714286Y-56440964D02*
X71642857Y-56405250D01*
X71642857Y-56405250D02*
X71607143Y-56369535D01*
X71607143Y-56369535D02*
X71571429Y-56298107D01*
X71571429Y-56298107D02*
X71571429Y-56083821D01*
X71571429Y-56083821D02*
X71607143Y-56012392D01*
X71607143Y-56012392D02*
X71642857Y-55976678D01*
X71642857Y-55976678D02*
X71714286Y-55940964D01*
X71714286Y-55940964D02*
X71821429Y-55940964D01*
X71821429Y-55940964D02*
X71892857Y-55976678D01*
X71892857Y-55976678D02*
X71928572Y-56012392D01*
X71928572Y-56012392D02*
X71964286Y-56083821D01*
X71964286Y-56083821D02*
X71964286Y-56298107D01*
X71964286Y-56298107D02*
X71928572Y-56369535D01*
X71928572Y-56369535D02*
X71892857Y-56405250D01*
X71892857Y-56405250D02*
X71821429Y-56440964D01*
X71821429Y-56440964D02*
X71714286Y-56440964D01*
X72285714Y-55940964D02*
X72285714Y-56440964D01*
X72285714Y-56012392D02*
X72321428Y-55976678D01*
X72321428Y-55976678D02*
X72392857Y-55940964D01*
X72392857Y-55940964D02*
X72500000Y-55940964D01*
X72500000Y-55940964D02*
X72571428Y-55976678D01*
X72571428Y-55976678D02*
X72607143Y-56048107D01*
X72607143Y-56048107D02*
X72607143Y-56440964D01*
X73928571Y-56440964D02*
X73500000Y-56440964D01*
X73714285Y-56440964D02*
X73714285Y-55690964D01*
X73714285Y-55690964D02*
X73642857Y-55798107D01*
X73642857Y-55798107D02*
X73571428Y-55869535D01*
X73571428Y-55869535D02*
X73500000Y-55905250D01*
X74250000Y-56369535D02*
X74285714Y-56405250D01*
X74285714Y-56405250D02*
X74250000Y-56440964D01*
X74250000Y-56440964D02*
X74214286Y-56405250D01*
X74214286Y-56405250D02*
X74250000Y-56369535D01*
X74250000Y-56369535D02*
X74250000Y-56440964D01*
X74535714Y-55690964D02*
X75000000Y-55690964D01*
X75000000Y-55690964D02*
X74750000Y-55976678D01*
X74750000Y-55976678D02*
X74857143Y-55976678D01*
X74857143Y-55976678D02*
X74928572Y-56012392D01*
X74928572Y-56012392D02*
X74964286Y-56048107D01*
X74964286Y-56048107D02*
X75000000Y-56119535D01*
X75000000Y-56119535D02*
X75000000Y-56298107D01*
X75000000Y-56298107D02*
X74964286Y-56369535D01*
X74964286Y-56369535D02*
X74928572Y-56405250D01*
X74928572Y-56405250D02*
X74857143Y-56440964D01*
X74857143Y-56440964D02*
X74642857Y-56440964D01*
X74642857Y-56440964D02*
X74571429Y-56405250D01*
X74571429Y-56405250D02*
X74535714Y-56369535D01*
X75714286Y-56440964D02*
X75285715Y-56440964D01*
X75500000Y-56440964D02*
X75500000Y-55690964D01*
X75500000Y-55690964D02*
X75428572Y-55798107D01*
X75428572Y-55798107D02*
X75357143Y-55869535D01*
X75357143Y-55869535D02*
X75285715Y-55905250D01*
D11*
X158035715Y-74678328D02*
X157178572Y-74678328D01*
X157607143Y-74678328D02*
X157607143Y-73178328D01*
X157607143Y-73178328D02*
X157464286Y-73392614D01*
X157464286Y-73392614D02*
X157321429Y-73535471D01*
X157321429Y-73535471D02*
X157178572Y-73606900D01*
X158607143Y-73321185D02*
X158678571Y-73249757D01*
X158678571Y-73249757D02*
X158821429Y-73178328D01*
X158821429Y-73178328D02*
X159178571Y-73178328D01*
X159178571Y-73178328D02*
X159321429Y-73249757D01*
X159321429Y-73249757D02*
X159392857Y-73321185D01*
X159392857Y-73321185D02*
X159464286Y-73464042D01*
X159464286Y-73464042D02*
X159464286Y-73606900D01*
X159464286Y-73606900D02*
X159392857Y-73821185D01*
X159392857Y-73821185D02*
X158535714Y-74678328D01*
X158535714Y-74678328D02*
X159464286Y-74678328D01*
X159892857Y-73178328D02*
X160392857Y-74678328D01*
X160392857Y-74678328D02*
X160892857Y-73178328D01*
X162535713Y-74678328D02*
X162535713Y-73178328D01*
X162535713Y-73178328D02*
X163107142Y-73178328D01*
X163107142Y-73178328D02*
X163249999Y-73249757D01*
X163249999Y-73249757D02*
X163321428Y-73321185D01*
X163321428Y-73321185D02*
X163392856Y-73464042D01*
X163392856Y-73464042D02*
X163392856Y-73678328D01*
X163392856Y-73678328D02*
X163321428Y-73821185D01*
X163321428Y-73821185D02*
X163249999Y-73892614D01*
X163249999Y-73892614D02*
X163107142Y-73964042D01*
X163107142Y-73964042D02*
X162535713Y-73964042D01*
X163892856Y-73178328D02*
X164249999Y-74678328D01*
X164249999Y-74678328D02*
X164535713Y-73606900D01*
X164535713Y-73606900D02*
X164821428Y-74678328D01*
X164821428Y-74678328D02*
X165178571Y-73178328D01*
X165749999Y-74678328D02*
X165749999Y-73178328D01*
X165749999Y-73178328D02*
X166249999Y-74249757D01*
X166249999Y-74249757D02*
X166749999Y-73178328D01*
X166749999Y-73178328D02*
X166749999Y-74678328D01*
X158642857Y-64263328D02*
X159500000Y-64263328D01*
X159071428Y-65763328D02*
X159071428Y-64263328D01*
X159999999Y-65763328D02*
X159999999Y-64263328D01*
X159999999Y-64977614D02*
X160857142Y-64977614D01*
X160857142Y-65763328D02*
X160857142Y-64263328D01*
X161571428Y-65763328D02*
X161571428Y-64263328D01*
X162214286Y-65691900D02*
X162428572Y-65763328D01*
X162428572Y-65763328D02*
X162785714Y-65763328D01*
X162785714Y-65763328D02*
X162928572Y-65691900D01*
X162928572Y-65691900D02*
X163000000Y-65620471D01*
X163000000Y-65620471D02*
X163071429Y-65477614D01*
X163071429Y-65477614D02*
X163071429Y-65334757D01*
X163071429Y-65334757D02*
X163000000Y-65191900D01*
X163000000Y-65191900D02*
X162928572Y-65120471D01*
X162928572Y-65120471D02*
X162785714Y-65049042D01*
X162785714Y-65049042D02*
X162500000Y-64977614D01*
X162500000Y-64977614D02*
X162357143Y-64906185D01*
X162357143Y-64906185D02*
X162285714Y-64834757D01*
X162285714Y-64834757D02*
X162214286Y-64691900D01*
X162214286Y-64691900D02*
X162214286Y-64549042D01*
X162214286Y-64549042D02*
X162285714Y-64406185D01*
X162285714Y-64406185D02*
X162357143Y-64334757D01*
X162357143Y-64334757D02*
X162500000Y-64263328D01*
X162500000Y-64263328D02*
X162857143Y-64263328D01*
X162857143Y-64263328D02*
X163071429Y-64334757D01*
X164785714Y-65691900D02*
X165000000Y-65763328D01*
X165000000Y-65763328D02*
X165357142Y-65763328D01*
X165357142Y-65763328D02*
X165500000Y-65691900D01*
X165500000Y-65691900D02*
X165571428Y-65620471D01*
X165571428Y-65620471D02*
X165642857Y-65477614D01*
X165642857Y-65477614D02*
X165642857Y-65334757D01*
X165642857Y-65334757D02*
X165571428Y-65191900D01*
X165571428Y-65191900D02*
X165500000Y-65120471D01*
X165500000Y-65120471D02*
X165357142Y-65049042D01*
X165357142Y-65049042D02*
X165071428Y-64977614D01*
X165071428Y-64977614D02*
X164928571Y-64906185D01*
X164928571Y-64906185D02*
X164857142Y-64834757D01*
X164857142Y-64834757D02*
X164785714Y-64691900D01*
X164785714Y-64691900D02*
X164785714Y-64549042D01*
X164785714Y-64549042D02*
X164857142Y-64406185D01*
X164857142Y-64406185D02*
X164928571Y-64334757D01*
X164928571Y-64334757D02*
X165071428Y-64263328D01*
X165071428Y-64263328D02*
X165428571Y-64263328D01*
X165428571Y-64263328D02*
X165642857Y-64334757D01*
X166285713Y-65763328D02*
X166285713Y-64263328D01*
X166999999Y-65763328D02*
X166999999Y-64263328D01*
X166999999Y-64263328D02*
X167357142Y-64263328D01*
X167357142Y-64263328D02*
X167571428Y-64334757D01*
X167571428Y-64334757D02*
X167714285Y-64477614D01*
X167714285Y-64477614D02*
X167785714Y-64620471D01*
X167785714Y-64620471D02*
X167857142Y-64906185D01*
X167857142Y-64906185D02*
X167857142Y-65120471D01*
X167857142Y-65120471D02*
X167785714Y-65406185D01*
X167785714Y-65406185D02*
X167714285Y-65549042D01*
X167714285Y-65549042D02*
X167571428Y-65691900D01*
X167571428Y-65691900D02*
X167357142Y-65763328D01*
X167357142Y-65763328D02*
X166999999Y-65763328D01*
X168499999Y-64977614D02*
X168999999Y-64977614D01*
X169214285Y-65763328D02*
X168499999Y-65763328D01*
X168499999Y-65763328D02*
X168499999Y-64263328D01*
X168499999Y-64263328D02*
X169214285Y-64263328D01*
X160928571Y-67392614D02*
X160428571Y-67392614D01*
X160428571Y-68178328D02*
X160428571Y-66678328D01*
X160428571Y-66678328D02*
X161142857Y-66678328D01*
X161642857Y-67749757D02*
X162357143Y-67749757D01*
X161500000Y-68178328D02*
X162000000Y-66678328D01*
X162000000Y-66678328D02*
X162500000Y-68178328D01*
X163857142Y-68035471D02*
X163785714Y-68106900D01*
X163785714Y-68106900D02*
X163571428Y-68178328D01*
X163571428Y-68178328D02*
X163428571Y-68178328D01*
X163428571Y-68178328D02*
X163214285Y-68106900D01*
X163214285Y-68106900D02*
X163071428Y-67964042D01*
X163071428Y-67964042D02*
X162999999Y-67821185D01*
X162999999Y-67821185D02*
X162928571Y-67535471D01*
X162928571Y-67535471D02*
X162928571Y-67321185D01*
X162928571Y-67321185D02*
X162999999Y-67035471D01*
X162999999Y-67035471D02*
X163071428Y-66892614D01*
X163071428Y-66892614D02*
X163214285Y-66749757D01*
X163214285Y-66749757D02*
X163428571Y-66678328D01*
X163428571Y-66678328D02*
X163571428Y-66678328D01*
X163571428Y-66678328D02*
X163785714Y-66749757D01*
X163785714Y-66749757D02*
X163857142Y-66821185D01*
X164499999Y-68178328D02*
X164499999Y-66678328D01*
X165214285Y-68178328D02*
X165214285Y-66678328D01*
X165214285Y-66678328D02*
X166071428Y-68178328D01*
X166071428Y-68178328D02*
X166071428Y-66678328D01*
X167571429Y-66749757D02*
X167428572Y-66678328D01*
X167428572Y-66678328D02*
X167214286Y-66678328D01*
X167214286Y-66678328D02*
X167000000Y-66749757D01*
X167000000Y-66749757D02*
X166857143Y-66892614D01*
X166857143Y-66892614D02*
X166785714Y-67035471D01*
X166785714Y-67035471D02*
X166714286Y-67321185D01*
X166714286Y-67321185D02*
X166714286Y-67535471D01*
X166714286Y-67535471D02*
X166785714Y-67821185D01*
X166785714Y-67821185D02*
X166857143Y-67964042D01*
X166857143Y-67964042D02*
X167000000Y-68106900D01*
X167000000Y-68106900D02*
X167214286Y-68178328D01*
X167214286Y-68178328D02*
X167357143Y-68178328D01*
X167357143Y-68178328D02*
X167571429Y-68106900D01*
X167571429Y-68106900D02*
X167642857Y-68035471D01*
X167642857Y-68035471D02*
X167642857Y-67535471D01*
X167642857Y-67535471D02*
X167357143Y-67535471D01*
X159500000Y-69093328D02*
X159785714Y-69093328D01*
X159785714Y-69093328D02*
X159928571Y-69164757D01*
X159928571Y-69164757D02*
X160071428Y-69307614D01*
X160071428Y-69307614D02*
X160142857Y-69593328D01*
X160142857Y-69593328D02*
X160142857Y-70093328D01*
X160142857Y-70093328D02*
X160071428Y-70379042D01*
X160071428Y-70379042D02*
X159928571Y-70521900D01*
X159928571Y-70521900D02*
X159785714Y-70593328D01*
X159785714Y-70593328D02*
X159500000Y-70593328D01*
X159500000Y-70593328D02*
X159357143Y-70521900D01*
X159357143Y-70521900D02*
X159214285Y-70379042D01*
X159214285Y-70379042D02*
X159142857Y-70093328D01*
X159142857Y-70093328D02*
X159142857Y-69593328D01*
X159142857Y-69593328D02*
X159214285Y-69307614D01*
X159214285Y-69307614D02*
X159357143Y-69164757D01*
X159357143Y-69164757D02*
X159500000Y-69093328D01*
X160785714Y-69093328D02*
X160785714Y-70307614D01*
X160785714Y-70307614D02*
X160857143Y-70450471D01*
X160857143Y-70450471D02*
X160928572Y-70521900D01*
X160928572Y-70521900D02*
X161071429Y-70593328D01*
X161071429Y-70593328D02*
X161357143Y-70593328D01*
X161357143Y-70593328D02*
X161500000Y-70521900D01*
X161500000Y-70521900D02*
X161571429Y-70450471D01*
X161571429Y-70450471D02*
X161642857Y-70307614D01*
X161642857Y-70307614D02*
X161642857Y-69093328D01*
X162142858Y-69093328D02*
X163000001Y-69093328D01*
X162571429Y-70593328D02*
X162571429Y-69093328D01*
X163357143Y-69093328D02*
X163714286Y-70593328D01*
X163714286Y-70593328D02*
X164000000Y-69521900D01*
X164000000Y-69521900D02*
X164285715Y-70593328D01*
X164285715Y-70593328D02*
X164642858Y-69093328D01*
X165142858Y-70164757D02*
X165857144Y-70164757D01*
X165000001Y-70593328D02*
X165500001Y-69093328D01*
X165500001Y-69093328D02*
X166000001Y-70593328D01*
X167357143Y-70593328D02*
X166857143Y-69879042D01*
X166500000Y-70593328D02*
X166500000Y-69093328D01*
X166500000Y-69093328D02*
X167071429Y-69093328D01*
X167071429Y-69093328D02*
X167214286Y-69164757D01*
X167214286Y-69164757D02*
X167285715Y-69236185D01*
X167285715Y-69236185D02*
X167357143Y-69379042D01*
X167357143Y-69379042D02*
X167357143Y-69593328D01*
X167357143Y-69593328D02*
X167285715Y-69736185D01*
X167285715Y-69736185D02*
X167214286Y-69807614D01*
X167214286Y-69807614D02*
X167071429Y-69879042D01*
X167071429Y-69879042D02*
X166500000Y-69879042D01*
X168000000Y-70593328D02*
X168000000Y-69093328D01*
X168000000Y-69093328D02*
X168357143Y-69093328D01*
X168357143Y-69093328D02*
X168571429Y-69164757D01*
X168571429Y-69164757D02*
X168714286Y-69307614D01*
X168714286Y-69307614D02*
X168785715Y-69450471D01*
X168785715Y-69450471D02*
X168857143Y-69736185D01*
X168857143Y-69736185D02*
X168857143Y-69950471D01*
X168857143Y-69950471D02*
X168785715Y-70236185D01*
X168785715Y-70236185D02*
X168714286Y-70379042D01*
X168714286Y-70379042D02*
X168571429Y-70521900D01*
X168571429Y-70521900D02*
X168357143Y-70593328D01*
X168357143Y-70593328D02*
X168000000Y-70593328D01*
D10*
X99190476Y-67954819D02*
X99190476Y-68669104D01*
X99190476Y-68669104D02*
X99142857Y-68811961D01*
X99142857Y-68811961D02*
X99047619Y-68907200D01*
X99047619Y-68907200D02*
X98904762Y-68954819D01*
X98904762Y-68954819D02*
X98809524Y-68954819D01*
X99619048Y-68050057D02*
X99666667Y-68002438D01*
X99666667Y-68002438D02*
X99761905Y-67954819D01*
X99761905Y-67954819D02*
X100000000Y-67954819D01*
X100000000Y-67954819D02*
X100095238Y-68002438D01*
X100095238Y-68002438D02*
X100142857Y-68050057D01*
X100142857Y-68050057D02*
X100190476Y-68145295D01*
X100190476Y-68145295D02*
X100190476Y-68240533D01*
X100190476Y-68240533D02*
X100142857Y-68383390D01*
X100142857Y-68383390D02*
X99571429Y-68954819D01*
X99571429Y-68954819D02*
X100190476Y-68954819D01*
X100523810Y-67954819D02*
X101142857Y-67954819D01*
X101142857Y-67954819D02*
X100809524Y-68335771D01*
X100809524Y-68335771D02*
X100952381Y-68335771D01*
X100952381Y-68335771D02*
X101047619Y-68383390D01*
X101047619Y-68383390D02*
X101095238Y-68431009D01*
X101095238Y-68431009D02*
X101142857Y-68526247D01*
X101142857Y-68526247D02*
X101142857Y-68764342D01*
X101142857Y-68764342D02*
X101095238Y-68859580D01*
X101095238Y-68859580D02*
X101047619Y-68907200D01*
X101047619Y-68907200D02*
X100952381Y-68954819D01*
X100952381Y-68954819D02*
X100666667Y-68954819D01*
X100666667Y-68954819D02*
X100571429Y-68907200D01*
X100571429Y-68907200D02*
X100523810Y-68859580D01*
X57190476Y-67954819D02*
X57190476Y-68669104D01*
X57190476Y-68669104D02*
X57142857Y-68811961D01*
X57142857Y-68811961D02*
X57047619Y-68907200D01*
X57047619Y-68907200D02*
X56904762Y-68954819D01*
X56904762Y-68954819D02*
X56809524Y-68954819D01*
X58190476Y-68954819D02*
X57619048Y-68954819D01*
X57904762Y-68954819D02*
X57904762Y-67954819D01*
X57904762Y-67954819D02*
X57809524Y-68097676D01*
X57809524Y-68097676D02*
X57714286Y-68192914D01*
X57714286Y-68192914D02*
X57619048Y-68240533D01*
X59142857Y-68954819D02*
X58571429Y-68954819D01*
X58857143Y-68954819D02*
X58857143Y-67954819D01*
X58857143Y-67954819D02*
X58761905Y-68097676D01*
X58761905Y-68097676D02*
X58666667Y-68192914D01*
X58666667Y-68192914D02*
X58571429Y-68240533D01*
X116809523Y-57045180D02*
X116809523Y-56330895D01*
X116809523Y-56330895D02*
X116857142Y-56188038D01*
X116857142Y-56188038D02*
X116952380Y-56092800D01*
X116952380Y-56092800D02*
X117095237Y-56045180D01*
X117095237Y-56045180D02*
X117190475Y-56045180D01*
X116428570Y-57045180D02*
X115809523Y-57045180D01*
X115809523Y-57045180D02*
X116142856Y-56664228D01*
X116142856Y-56664228D02*
X115999999Y-56664228D01*
X115999999Y-56664228D02*
X115904761Y-56616609D01*
X115904761Y-56616609D02*
X115857142Y-56568990D01*
X115857142Y-56568990D02*
X115809523Y-56473752D01*
X115809523Y-56473752D02*
X115809523Y-56235657D01*
X115809523Y-56235657D02*
X115857142Y-56140419D01*
X115857142Y-56140419D02*
X115904761Y-56092800D01*
X115904761Y-56092800D02*
X115999999Y-56045180D01*
X115999999Y-56045180D02*
X116285713Y-56045180D01*
X116285713Y-56045180D02*
X116380951Y-56092800D01*
X116380951Y-56092800D02*
X116428570Y-56140419D01*
X115190475Y-57045180D02*
X115095237Y-57045180D01*
X115095237Y-57045180D02*
X114999999Y-56997561D01*
X114999999Y-56997561D02*
X114952380Y-56949942D01*
X114952380Y-56949942D02*
X114904761Y-56854704D01*
X114904761Y-56854704D02*
X114857142Y-56664228D01*
X114857142Y-56664228D02*
X114857142Y-56426133D01*
X114857142Y-56426133D02*
X114904761Y-56235657D01*
X114904761Y-56235657D02*
X114952380Y-56140419D01*
X114952380Y-56140419D02*
X114999999Y-56092800D01*
X114999999Y-56092800D02*
X115095237Y-56045180D01*
X115095237Y-56045180D02*
X115190475Y-56045180D01*
X115190475Y-56045180D02*
X115285713Y-56092800D01*
X115285713Y-56092800D02*
X115333332Y-56140419D01*
X115333332Y-56140419D02*
X115380951Y-56235657D01*
X115380951Y-56235657D02*
X115428570Y-56426133D01*
X115428570Y-56426133D02*
X115428570Y-56664228D01*
X115428570Y-56664228D02*
X115380951Y-56854704D01*
X115380951Y-56854704D02*
X115333332Y-56949942D01*
X115333332Y-56949942D02*
X115285713Y-56997561D01*
X115285713Y-56997561D02*
X115190475Y-57045180D01*
X86809523Y-57045180D02*
X86809523Y-56330895D01*
X86809523Y-56330895D02*
X86857142Y-56188038D01*
X86857142Y-56188038D02*
X86952380Y-56092800D01*
X86952380Y-56092800D02*
X87095237Y-56045180D01*
X87095237Y-56045180D02*
X87190475Y-56045180D01*
X86380951Y-56949942D02*
X86333332Y-56997561D01*
X86333332Y-56997561D02*
X86238094Y-57045180D01*
X86238094Y-57045180D02*
X85999999Y-57045180D01*
X85999999Y-57045180D02*
X85904761Y-56997561D01*
X85904761Y-56997561D02*
X85857142Y-56949942D01*
X85857142Y-56949942D02*
X85809523Y-56854704D01*
X85809523Y-56854704D02*
X85809523Y-56759466D01*
X85809523Y-56759466D02*
X85857142Y-56616609D01*
X85857142Y-56616609D02*
X86428570Y-56045180D01*
X86428570Y-56045180D02*
X85809523Y-56045180D01*
X85190475Y-57045180D02*
X85095237Y-57045180D01*
X85095237Y-57045180D02*
X84999999Y-56997561D01*
X84999999Y-56997561D02*
X84952380Y-56949942D01*
X84952380Y-56949942D02*
X84904761Y-56854704D01*
X84904761Y-56854704D02*
X84857142Y-56664228D01*
X84857142Y-56664228D02*
X84857142Y-56426133D01*
X84857142Y-56426133D02*
X84904761Y-56235657D01*
X84904761Y-56235657D02*
X84952380Y-56140419D01*
X84952380Y-56140419D02*
X84999999Y-56092800D01*
X84999999Y-56092800D02*
X85095237Y-56045180D01*
X85095237Y-56045180D02*
X85190475Y-56045180D01*
X85190475Y-56045180D02*
X85285713Y-56092800D01*
X85285713Y-56092800D02*
X85333332Y-56140419D01*
X85333332Y-56140419D02*
X85380951Y-56235657D01*
X85380951Y-56235657D02*
X85428570Y-56426133D01*
X85428570Y-56426133D02*
X85428570Y-56664228D01*
X85428570Y-56664228D02*
X85380951Y-56854704D01*
X85380951Y-56854704D02*
X85333332Y-56949942D01*
X85333332Y-56949942D02*
X85285713Y-56997561D01*
X85285713Y-56997561D02*
X85190475Y-57045180D01*
X85190476Y-67954819D02*
X85190476Y-68669104D01*
X85190476Y-68669104D02*
X85142857Y-68811961D01*
X85142857Y-68811961D02*
X85047619Y-68907200D01*
X85047619Y-68907200D02*
X84904762Y-68954819D01*
X84904762Y-68954819D02*
X84809524Y-68954819D01*
X85619048Y-68050057D02*
X85666667Y-68002438D01*
X85666667Y-68002438D02*
X85761905Y-67954819D01*
X85761905Y-67954819D02*
X86000000Y-67954819D01*
X86000000Y-67954819D02*
X86095238Y-68002438D01*
X86095238Y-68002438D02*
X86142857Y-68050057D01*
X86142857Y-68050057D02*
X86190476Y-68145295D01*
X86190476Y-68145295D02*
X86190476Y-68240533D01*
X86190476Y-68240533D02*
X86142857Y-68383390D01*
X86142857Y-68383390D02*
X85571429Y-68954819D01*
X85571429Y-68954819D02*
X86190476Y-68954819D01*
X87142857Y-68954819D02*
X86571429Y-68954819D01*
X86857143Y-68954819D02*
X86857143Y-67954819D01*
X86857143Y-67954819D02*
X86761905Y-68097676D01*
X86761905Y-68097676D02*
X86666667Y-68192914D01*
X86666667Y-68192914D02*
X86571429Y-68240533D01*
X100809523Y-57045180D02*
X100809523Y-56330895D01*
X100809523Y-56330895D02*
X100857142Y-56188038D01*
X100857142Y-56188038D02*
X100952380Y-56092800D01*
X100952380Y-56092800D02*
X101095237Y-56045180D01*
X101095237Y-56045180D02*
X101190475Y-56045180D01*
X100380951Y-56949942D02*
X100333332Y-56997561D01*
X100333332Y-56997561D02*
X100238094Y-57045180D01*
X100238094Y-57045180D02*
X99999999Y-57045180D01*
X99999999Y-57045180D02*
X99904761Y-56997561D01*
X99904761Y-56997561D02*
X99857142Y-56949942D01*
X99857142Y-56949942D02*
X99809523Y-56854704D01*
X99809523Y-56854704D02*
X99809523Y-56759466D01*
X99809523Y-56759466D02*
X99857142Y-56616609D01*
X99857142Y-56616609D02*
X100428570Y-56045180D01*
X100428570Y-56045180D02*
X99809523Y-56045180D01*
X99428570Y-56949942D02*
X99380951Y-56997561D01*
X99380951Y-56997561D02*
X99285713Y-57045180D01*
X99285713Y-57045180D02*
X99047618Y-57045180D01*
X99047618Y-57045180D02*
X98952380Y-56997561D01*
X98952380Y-56997561D02*
X98904761Y-56949942D01*
X98904761Y-56949942D02*
X98857142Y-56854704D01*
X98857142Y-56854704D02*
X98857142Y-56759466D01*
X98857142Y-56759466D02*
X98904761Y-56616609D01*
X98904761Y-56616609D02*
X99476189Y-56045180D01*
X99476189Y-56045180D02*
X98857142Y-56045180D01*
X58809523Y-57045180D02*
X58809523Y-56330895D01*
X58809523Y-56330895D02*
X58857142Y-56188038D01*
X58857142Y-56188038D02*
X58952380Y-56092800D01*
X58952380Y-56092800D02*
X59095237Y-56045180D01*
X59095237Y-56045180D02*
X59190475Y-56045180D01*
X57809523Y-56045180D02*
X58380951Y-56045180D01*
X58095237Y-56045180D02*
X58095237Y-57045180D01*
X58095237Y-57045180D02*
X58190475Y-56902323D01*
X58190475Y-56902323D02*
X58285713Y-56807085D01*
X58285713Y-56807085D02*
X58380951Y-56759466D01*
X57190475Y-57045180D02*
X57095237Y-57045180D01*
X57095237Y-57045180D02*
X56999999Y-56997561D01*
X56999999Y-56997561D02*
X56952380Y-56949942D01*
X56952380Y-56949942D02*
X56904761Y-56854704D01*
X56904761Y-56854704D02*
X56857142Y-56664228D01*
X56857142Y-56664228D02*
X56857142Y-56426133D01*
X56857142Y-56426133D02*
X56904761Y-56235657D01*
X56904761Y-56235657D02*
X56952380Y-56140419D01*
X56952380Y-56140419D02*
X56999999Y-56092800D01*
X56999999Y-56092800D02*
X57095237Y-56045180D01*
X57095237Y-56045180D02*
X57190475Y-56045180D01*
X57190475Y-56045180D02*
X57285713Y-56092800D01*
X57285713Y-56092800D02*
X57333332Y-56140419D01*
X57333332Y-56140419D02*
X57380951Y-56235657D01*
X57380951Y-56235657D02*
X57428570Y-56426133D01*
X57428570Y-56426133D02*
X57428570Y-56664228D01*
X57428570Y-56664228D02*
X57380951Y-56854704D01*
X57380951Y-56854704D02*
X57333332Y-56949942D01*
X57333332Y-56949942D02*
X57285713Y-56997561D01*
X57285713Y-56997561D02*
X57190475Y-57045180D01*
D13*
%TO.C,J23*%
X105500000Y-69000000D02*
G75*
G03*
X105500000Y-69000000I-5500000J0D01*
G01*
%TO.C,J11*%
X63500000Y-69000000D02*
G75*
G03*
X63500000Y-69000000I-5500000J0D01*
G01*
%TO.C,J30*%
X121500000Y-56000000D02*
G75*
G03*
X121500000Y-56000000I-5500000J0D01*
G01*
%TO.C,J20*%
X91500000Y-56000000D02*
G75*
G03*
X91500000Y-56000000I-5500000J0D01*
G01*
%TO.C,J21*%
X91500000Y-69000000D02*
G75*
G03*
X91500000Y-69000000I-5500000J0D01*
G01*
%TO.C,J22*%
X105500000Y-56000000D02*
G75*
G03*
X105500000Y-56000000I-5500000J0D01*
G01*
%TO.C,J10*%
X63500000Y-56000000D02*
G75*
G03*
X63500000Y-56000000I-5500000J0D01*
G01*
%TD*%
%LPC*%
D14*
%TO.C,J23*%
X103750000Y-69000000D03*
D15*
X100000000Y-65250000D03*
D14*
X96250000Y-69000000D03*
%TD*%
%TO.C,J11*%
X61750000Y-69000000D03*
D15*
X58000000Y-65250000D03*
D14*
X54250000Y-69000000D03*
%TD*%
%TO.C,J30*%
X112250000Y-56000000D03*
D15*
X116000000Y-59750000D03*
D14*
X119750000Y-56000000D03*
%TD*%
%TO.C,J20*%
X82250000Y-56000000D03*
D15*
X86000000Y-59750000D03*
D14*
X89750000Y-56000000D03*
%TD*%
%TO.C,J21*%
X89750000Y-69000000D03*
D15*
X86000000Y-65250000D03*
D14*
X82250000Y-69000000D03*
%TD*%
%TO.C,J22*%
X96250000Y-56000000D03*
D15*
X100000000Y-59750000D03*
D14*
X103750000Y-56000000D03*
%TD*%
%TO.C,J10*%
X54250000Y-56000000D03*
D15*
X58000000Y-59750000D03*
D14*
X61750000Y-56000000D03*
%TD*%
D16*
%TO.C,J43*%
X136500000Y-57000000D03*
X125500000Y-56000000D03*
X135000000Y-53500000D03*
X131500000Y-59500000D03*
%TD*%
D17*
%TO.C,J12*%
X71500000Y-70500000D03*
D18*
X71500000Y-66540000D03*
%TD*%
D17*
%TO.C,J31*%
X116000000Y-70500000D03*
D18*
X116000000Y-66540000D03*
%TD*%
D19*
%TO.C,J40*%
X148740000Y-70000000D03*
D20*
X143660000Y-70000000D03*
X138580000Y-70000000D03*
X133500000Y-70000000D03*
%TD*%
D16*
%TO.C,J41*%
X166500000Y-57000000D03*
X155500000Y-56000000D03*
X165000000Y-53500000D03*
X161500000Y-59500000D03*
%TD*%
%TO.C,J42*%
X151500000Y-57000000D03*
X140500000Y-56000000D03*
X150000000Y-53500000D03*
X146500000Y-59500000D03*
%TD*%
%LPD*%
M02*
