%TF.GenerationSoftware,KiCad,Pcbnew,7.0.2*%
%TF.CreationDate,2023-05-14T11:04:53+02:00*%
%TF.ProjectId,Other-power,4f746865-722d-4706-9f77-65722e6b6963,rev?*%
%TF.SameCoordinates,Original*%
%TF.FileFunction,Legend,Top*%
%TF.FilePolarity,Positive*%
%FSLAX46Y46*%
G04 Gerber Fmt 4.6, Leading zero omitted, Abs format (unit mm)*
G04 Created by KiCad (PCBNEW 7.0.2) date 2023-05-14 11:04:53*
%MOMM*%
%LPD*%
G01*
G04 APERTURE LIST*
G04 Aperture macros list*
%AMRoundRect*
0 Rectangle with rounded corners*
0 $1 Rounding radius*
0 $2 $3 $4 $5 $6 $7 $8 $9 X,Y pos of 4 corners*
0 Add a 4 corners polygon primitive as box body*
4,1,4,$2,$3,$4,$5,$6,$7,$8,$9,$2,$3,0*
0 Add four circle primitives for the rounded corners*
1,1,$1+$1,$2,$3*
1,1,$1+$1,$4,$5*
1,1,$1+$1,$6,$7*
1,1,$1+$1,$8,$9*
0 Add four rect primitives between the rounded corners*
20,1,$1+$1,$2,$3,$4,$5,0*
20,1,$1+$1,$4,$5,$6,$7,0*
20,1,$1+$1,$6,$7,$8,$9,0*
20,1,$1+$1,$8,$9,$2,$3,0*%
G04 Aperture macros list end*
%ADD10C,0.150000*%
%ADD11C,0.120000*%
%ADD12R,1.700000X1.700000*%
%ADD13O,1.700000X1.700000*%
%ADD14RoundRect,0.250001X-1.099999X1.099999X-1.099999X-1.099999X1.099999X-1.099999X1.099999X1.099999X0*%
%ADD15C,2.700000*%
%ADD16RoundRect,0.750000X-0.750000X-2.750000X0.750000X-2.750000X0.750000X2.750000X-0.750000X2.750000X0*%
%ADD17RoundRect,0.250000X-0.600000X-0.725000X0.600000X-0.725000X0.600000X0.725000X-0.600000X0.725000X0*%
%ADD18O,1.700000X1.950000*%
%ADD19O,2.000000X5.000000*%
%ADD20O,5.000000X2.000000*%
G04 APERTURE END LIST*
D10*
X75500000Y-60000000D02*
X115500000Y-60000000D01*
%TO.C,J1*%
X161862619Y-58353333D02*
X162576904Y-58353333D01*
X162576904Y-58353333D02*
X162719761Y-58400952D01*
X162719761Y-58400952D02*
X162815000Y-58496190D01*
X162815000Y-58496190D02*
X162862619Y-58639047D01*
X162862619Y-58639047D02*
X162862619Y-58734285D01*
X162862619Y-57353333D02*
X162862619Y-57924761D01*
X162862619Y-57639047D02*
X161862619Y-57639047D01*
X161862619Y-57639047D02*
X162005476Y-57734285D01*
X162005476Y-57734285D02*
X162100714Y-57829523D01*
X162100714Y-57829523D02*
X162148333Y-57924761D01*
%TO.C,J2*%
X149362619Y-58353333D02*
X150076904Y-58353333D01*
X150076904Y-58353333D02*
X150219761Y-58400952D01*
X150219761Y-58400952D02*
X150315000Y-58496190D01*
X150315000Y-58496190D02*
X150362619Y-58639047D01*
X150362619Y-58639047D02*
X150362619Y-58734285D01*
X149457857Y-57924761D02*
X149410238Y-57877142D01*
X149410238Y-57877142D02*
X149362619Y-57781904D01*
X149362619Y-57781904D02*
X149362619Y-57543809D01*
X149362619Y-57543809D02*
X149410238Y-57448571D01*
X149410238Y-57448571D02*
X149457857Y-57400952D01*
X149457857Y-57400952D02*
X149553095Y-57353333D01*
X149553095Y-57353333D02*
X149648333Y-57353333D01*
X149648333Y-57353333D02*
X149791190Y-57400952D01*
X149791190Y-57400952D02*
X150362619Y-57972380D01*
X150362619Y-57972380D02*
X150362619Y-57353333D01*
%TO.C,SW1*%
X173666667Y-59915000D02*
X173809524Y-59962619D01*
X173809524Y-59962619D02*
X174047619Y-59962619D01*
X174047619Y-59962619D02*
X174142857Y-59915000D01*
X174142857Y-59915000D02*
X174190476Y-59867380D01*
X174190476Y-59867380D02*
X174238095Y-59772142D01*
X174238095Y-59772142D02*
X174238095Y-59676904D01*
X174238095Y-59676904D02*
X174190476Y-59581666D01*
X174190476Y-59581666D02*
X174142857Y-59534047D01*
X174142857Y-59534047D02*
X174047619Y-59486428D01*
X174047619Y-59486428D02*
X173857143Y-59438809D01*
X173857143Y-59438809D02*
X173761905Y-59391190D01*
X173761905Y-59391190D02*
X173714286Y-59343571D01*
X173714286Y-59343571D02*
X173666667Y-59248333D01*
X173666667Y-59248333D02*
X173666667Y-59153095D01*
X173666667Y-59153095D02*
X173714286Y-59057857D01*
X173714286Y-59057857D02*
X173761905Y-59010238D01*
X173761905Y-59010238D02*
X173857143Y-58962619D01*
X173857143Y-58962619D02*
X174095238Y-58962619D01*
X174095238Y-58962619D02*
X174238095Y-59010238D01*
X174571429Y-58962619D02*
X174809524Y-59962619D01*
X174809524Y-59962619D02*
X175000000Y-59248333D01*
X175000000Y-59248333D02*
X175190476Y-59962619D01*
X175190476Y-59962619D02*
X175428572Y-58962619D01*
X176333333Y-59962619D02*
X175761905Y-59962619D01*
X176047619Y-59962619D02*
X176047619Y-58962619D01*
X176047619Y-58962619D02*
X175952381Y-59105476D01*
X175952381Y-59105476D02*
X175857143Y-59200714D01*
X175857143Y-59200714D02*
X175761905Y-59248333D01*
%TO.C,J4*%
X100166666Y-50912619D02*
X100166666Y-51626904D01*
X100166666Y-51626904D02*
X100119047Y-51769761D01*
X100119047Y-51769761D02*
X100023809Y-51865000D01*
X100023809Y-51865000D02*
X99880952Y-51912619D01*
X99880952Y-51912619D02*
X99785714Y-51912619D01*
X101071428Y-51245952D02*
X101071428Y-51912619D01*
X100833333Y-50865000D02*
X100595238Y-51579285D01*
X100595238Y-51579285D02*
X101214285Y-51579285D01*
%TO.C,J6*%
X86666666Y-50912619D02*
X86666666Y-51626904D01*
X86666666Y-51626904D02*
X86619047Y-51769761D01*
X86619047Y-51769761D02*
X86523809Y-51865000D01*
X86523809Y-51865000D02*
X86380952Y-51912619D01*
X86380952Y-51912619D02*
X86285714Y-51912619D01*
X87571428Y-50912619D02*
X87380952Y-50912619D01*
X87380952Y-50912619D02*
X87285714Y-50960238D01*
X87285714Y-50960238D02*
X87238095Y-51007857D01*
X87238095Y-51007857D02*
X87142857Y-51150714D01*
X87142857Y-51150714D02*
X87095238Y-51341190D01*
X87095238Y-51341190D02*
X87095238Y-51722142D01*
X87095238Y-51722142D02*
X87142857Y-51817380D01*
X87142857Y-51817380D02*
X87190476Y-51865000D01*
X87190476Y-51865000D02*
X87285714Y-51912619D01*
X87285714Y-51912619D02*
X87476190Y-51912619D01*
X87476190Y-51912619D02*
X87571428Y-51865000D01*
X87571428Y-51865000D02*
X87619047Y-51817380D01*
X87619047Y-51817380D02*
X87666666Y-51722142D01*
X87666666Y-51722142D02*
X87666666Y-51484047D01*
X87666666Y-51484047D02*
X87619047Y-51388809D01*
X87619047Y-51388809D02*
X87571428Y-51341190D01*
X87571428Y-51341190D02*
X87476190Y-51293571D01*
X87476190Y-51293571D02*
X87285714Y-51293571D01*
X87285714Y-51293571D02*
X87190476Y-51341190D01*
X87190476Y-51341190D02*
X87142857Y-51388809D01*
X87142857Y-51388809D02*
X87095238Y-51484047D01*
D11*
%TO.C,J1*%
X157800000Y-53180000D02*
X157500000Y-53780000D01*
X157200000Y-53180000D02*
X157800000Y-53180000D01*
X157500000Y-53780000D02*
X157200000Y-53180000D01*
X159610000Y-53980000D02*
X159610000Y-55180000D01*
X152590000Y-53980000D02*
X159610000Y-53980000D01*
X161310000Y-55180000D02*
X161310000Y-60860000D01*
X159610000Y-55180000D02*
X161310000Y-55180000D01*
X161310000Y-60860000D02*
X159610000Y-60860000D01*
X159610000Y-60860000D02*
X159610000Y-62060000D01*
X159610000Y-62060000D02*
X152590000Y-62060000D01*
X152590000Y-62060000D02*
X152590000Y-53980000D01*
%TO.C,J2*%
X145300000Y-53180000D02*
X145000000Y-53780000D01*
X144700000Y-53180000D02*
X145300000Y-53180000D01*
X145000000Y-53780000D02*
X144700000Y-53180000D01*
X147110000Y-53980000D02*
X147110000Y-55180000D01*
X140090000Y-53980000D02*
X147110000Y-53980000D01*
X148810000Y-55180000D02*
X148810000Y-60860000D01*
X147110000Y-55180000D02*
X148810000Y-55180000D01*
X148810000Y-60860000D02*
X147110000Y-60860000D01*
X147110000Y-60860000D02*
X147110000Y-62060000D01*
X147110000Y-62060000D02*
X140090000Y-62060000D01*
X140090000Y-62060000D02*
X140090000Y-53980000D01*
%TO.C,SW1*%
X165700000Y-53500000D02*
X184300000Y-53500000D01*
X184300000Y-53500000D02*
X184300000Y-66500000D01*
X184300000Y-66500000D02*
X165700000Y-66500000D01*
X165700000Y-66500000D02*
X165700000Y-53500000D01*
%TO.C,J4*%
X95150000Y-52250000D02*
X95150000Y-53500000D01*
X95440000Y-52540000D02*
X95440000Y-58510000D01*
X95440000Y-58510000D02*
X105560000Y-58510000D01*
X95450000Y-52550000D02*
X95450000Y-53300000D01*
X95450000Y-53300000D02*
X97250000Y-53300000D01*
X95450000Y-54800000D02*
X96200000Y-54800000D01*
X96200000Y-54800000D02*
X96200000Y-57750000D01*
X96200000Y-57750000D02*
X100500000Y-57750000D01*
X96400000Y-52250000D02*
X95150000Y-52250000D01*
X97250000Y-52550000D02*
X95450000Y-52550000D01*
X97250000Y-53300000D02*
X97250000Y-52550000D01*
X98750000Y-52550000D02*
X98750000Y-53300000D01*
X98750000Y-53300000D02*
X102250000Y-53300000D01*
X102250000Y-52550000D02*
X98750000Y-52550000D01*
X102250000Y-53300000D02*
X102250000Y-52550000D01*
X103750000Y-52550000D02*
X103750000Y-53300000D01*
X103750000Y-53300000D02*
X105550000Y-53300000D01*
X104800000Y-54800000D02*
X104800000Y-57750000D01*
X104800000Y-57750000D02*
X100500000Y-57750000D01*
X105550000Y-52550000D02*
X103750000Y-52550000D01*
X105550000Y-53300000D02*
X105550000Y-52550000D01*
X105550000Y-54800000D02*
X104800000Y-54800000D01*
X105560000Y-52540000D02*
X95440000Y-52540000D01*
X105560000Y-58510000D02*
X105560000Y-52540000D01*
%TO.C,J6*%
X81650000Y-52250000D02*
X81650000Y-53500000D01*
X81940000Y-52540000D02*
X81940000Y-58510000D01*
X81940000Y-58510000D02*
X92060000Y-58510000D01*
X81950000Y-52550000D02*
X81950000Y-53300000D01*
X81950000Y-53300000D02*
X83750000Y-53300000D01*
X81950000Y-54800000D02*
X82700000Y-54800000D01*
X82700000Y-54800000D02*
X82700000Y-57750000D01*
X82700000Y-57750000D02*
X87000000Y-57750000D01*
X82900000Y-52250000D02*
X81650000Y-52250000D01*
X83750000Y-52550000D02*
X81950000Y-52550000D01*
X83750000Y-53300000D02*
X83750000Y-52550000D01*
X85250000Y-52550000D02*
X85250000Y-53300000D01*
X85250000Y-53300000D02*
X88750000Y-53300000D01*
X88750000Y-52550000D02*
X85250000Y-52550000D01*
X88750000Y-53300000D02*
X88750000Y-52550000D01*
X90250000Y-52550000D02*
X90250000Y-53300000D01*
X90250000Y-53300000D02*
X92050000Y-53300000D01*
X91300000Y-54800000D02*
X91300000Y-57750000D01*
X91300000Y-57750000D02*
X87000000Y-57750000D01*
X92050000Y-52550000D02*
X90250000Y-52550000D01*
X92050000Y-53300000D02*
X92050000Y-52550000D01*
X92050000Y-54800000D02*
X91300000Y-54800000D01*
X92060000Y-52540000D02*
X81940000Y-52540000D01*
X92060000Y-58510000D02*
X92060000Y-52540000D01*
%TD*%
%LPC*%
D12*
%TO.C,J7*%
X111500000Y-57475000D03*
D13*
X111500000Y-60015000D03*
X111500000Y-62555000D03*
%TD*%
D14*
%TO.C,J1*%
X157500000Y-56040000D03*
D15*
X157500000Y-60000000D03*
%TD*%
D14*
%TO.C,J2*%
X145000000Y-56040000D03*
D15*
X145000000Y-60000000D03*
%TD*%
D16*
%TO.C,SW1*%
X168000000Y-60000000D03*
X175000000Y-60000000D03*
%TD*%
D17*
%TO.C,J4*%
X98000000Y-55000000D03*
D18*
X100500000Y-55000000D03*
X103000000Y-55000000D03*
%TD*%
D17*
%TO.C,J6*%
X84500000Y-55000000D03*
D18*
X87000000Y-55000000D03*
X89500000Y-55000000D03*
%TD*%
D12*
%TO.C,J5*%
X116500000Y-57500000D03*
D13*
X116500000Y-60040000D03*
X116500000Y-62580000D03*
%TD*%
D19*
%TO.C,J8*%
X126750000Y-60000000D03*
D20*
X130500000Y-56250000D03*
D19*
X134250000Y-60000000D03*
%TD*%
%LPD*%
M02*
