M48
; DRILL file {KiCad 7.0.2} date Sun May 14 11:04:53 2023
; FORMAT={-:-/ absolute / inch / decimal}
; #@! TF.CreationDate,2023-05-14T11:04:53+02:00
; #@! TF.GenerationSoftware,Kicad,Pcbnew,7.0.2
; #@! TF.FileFunction,Plated,1,2,PTH
FMAT,2
INCH
; #@! TA.AperFunction,Plated,PTH,ComponentDrill
T1C0.0295
; #@! TA.AperFunction,Plated,PTH,ComponentDrill
T2C0.0374
; #@! TA.AperFunction,Plated,PTH,ComponentDrill
T3C0.0394
; #@! TA.AperFunction,Plated,PTH,ComponentDrill
T4C0.0669
%
G90
G05
T2
X3.3268Y-2.1654
X3.4252Y-2.1654
X3.5236Y-2.1654
X3.8583Y-2.1654
X3.9567Y-2.1654
X4.0551Y-2.1654
T3
X4.3898Y-2.2628
X4.3898Y-2.3628
X4.3898Y-2.4628
X4.5866Y-2.2638
X4.5866Y-2.3638
X4.5866Y-2.4638
T4
X5.7087Y-2.2063
X5.7087Y-2.3622
X6.2008Y-2.2063
X6.2008Y-2.3622
T1
G00X4.9902Y-2.4124
M15
G01X4.9902Y-2.312
M16
G05
G00X5.188Y-2.2146
M15
G01X5.0876Y-2.2146
M16
G05
G00X5.2854Y-2.4124
M15
G01X5.2854Y-2.312
M16
G05
T3
G00X6.6142Y-2.2835
M15
G01X6.6142Y-2.4409
M16
G05
G00X6.8898Y-2.2835
M15
G01X6.8898Y-2.4409
M16
G05
T0
M30
